<?xml version="1.0" encoding="utf-8"?>
<!-- Generator: Adobe Illustrator 23.1.0, SVG Export Plug-In . SVG Version: 6.00 Build 0)  -->
<svg version="1.1" id="Слой_1" xmlns="http://www.w3.org/2000/svg" xmlns:xlink="http://www.w3.org/1999/xlink" x="0px" y="0px"
	 viewBox="0 0 2000 2000" style="enable-background:new 0 0 2000 2000;" xml:space="preserve">
<rect style="display:none;fill:#587267;" width="2000" height="2000"/>
<g>
	<path style="fill:#FFFFFF;" d="M676.0872803,1019.6923828c-0.6159058-1.4976807-0.9047852-2.8345337-1.6330566-3.8589478
		c-2.8023071-3.9420166-2.7932129-12.2705078-0.0333862-16.0178223c0.616333-0.836853,0.1834106-2.5585327,0.8660889-3.2158813
		c4.0262451-3.8766479,8.2216797-7.5791626,12.4121094-11.2814941c0.5210571-0.4603882,1.3839722-0.5097046,2.0270386-0.8617554
		c1.0375977-0.5678711,2.0587769-1.1800537,3.0252686-1.8609619c2.2578125-1.5905151,4.3260498-3.5320435,6.7560425-4.7739868
		c2.6584473-1.3588867,4.1921387-3.7818604,3.8049927-6.0595093c-0.3190918-1.8771973-2.6895142-3.6889648-4.5421143-4.9591064
		c-3.1454468-2.15625-6.8285522-1.9599609-10.5618896-1.8743286c-3.574585,0.0820923-7.2219849-0.552124-10.7453003-1.3033447
		c-4.5315552-0.9661255-8.9464722-2.470459-13.4647217-3.5129395c-1.4898071-0.34375-3.1553345,0.1641846-4.7213135,0.0404053
		c-2.7017212-0.2134399-5.4837646-0.2880859-8.0539551-1.0344238c-2.4616089-0.7148438-4.7401733-2.1313477-7.0158691-3.3900757
		c-1.4859619-0.8218994-2.8226318-1.9136353-4.2293091-2.8797607c-0.0748291-0.0513306-0.1906738-0.1031494-0.2678223-0.0822754
		c-5.0178833,1.3555908-6.7478027-3.6542358-10.2252197-5.2635498c-5.5048218-2.5476074-7.4205933-8.2436523-11.0383911-12.4389648
		c-1.8139648-2.1035156-3.6367798-4.324707-4.8392944-6.7929688c-1.0803223-2.2174683-1.4876099-4.8180542-1.8904419-7.298584
		c-0.763855-4.7036133-1.4827881-9.4269409-1.9092407-14.1699219c-0.62146-6.9117432,1.3483276-12.7836914,7.4060669-16.8828125
		c0.9553223-0.6463623,1.4439697-1.9824219,2.348999-3.2894287c0.5027466-0.1717529,1.4908447-0.4503784,2.4326782-0.8407593
		c5.3577271-2.2199097,10.7518921-4.3606567,16.0411987-6.734314c5.1618042-2.3164673,10.602417-2.0119019,16.0246582-2.2659912
		c1.6897583-0.0792236,3.3325195-0.9621582,5.0183105-1.3931885c1.255249-0.321106,2.7023315-1.0037231,3.7897949-0.6593018
		c3.1767578,1.0059204,5.609375-0.6989746,6.7559814-2.7647095c0.9525146-1.7159424,0.6281128-4.7367554-0.2313843-6.6968994
		c-0.8809204-2.0090332-3.1140747-3.4174805-4.7286987-5.1140747c-2.793396-2.9353027-5.3043213-6.2097778-8.4130859-8.7568359
		c-3.9823608-3.2628784-5.9208984-7.7377319-7.7958374-12.1205444c-1.1905518-2.7830811-0.850647-6.2175903-1.2198486-9.3572998
		c-0.1096191-0.932251-0.3786011-1.8505249-0.4337769-2.7835083c-0.2316284-3.9199219-0.5846558-7.8439941-0.5617065-11.7645874
		c0.0261841-4.4766846-1.4901123-8.4238281-3.3001709-12.3873901c-1.2314453-2.6963501-2.1982422-5.53302-3.057312-8.3752441
		c-1.1627197-3.847229-2.1572266-7.7479858-3.1140137-11.65271c-0.2397461-0.9784546-0.3502808-2.1668701-0.0161743-3.0730591
		c0.8773193-2.3796387,2.2247925-4.3592529,1.9390869-7.3309326c-0.2116089-2.2011719,2.0194092-4.5593262,2.8484497-6.9561157
		c1.3538208-3.9142456,5.1710815-5.472229,7.5966187-8.3555298c4.8131104-5.7216187,11.3823853-8.4430542,18.4248047-10.2688599
		c1.1646118-0.3018799,2.2270508-0.9845581,3.3845825-1.3312378c0.9761353-0.2922363,2.0182495-0.3810425,3.0376587-0.5073853
		c1.272644-0.1577148,2.5814819-0.1334839,3.8216553-0.4185791c1.9421997-0.4465942,3.8270874-1.1370239,5.7597046-1.6326904
		c2.8739624-0.7369995,5.7706299-1.3851318,8.6501465-2.1012573c0.2479858-0.0617065,0.4786377-0.3188477,0.6517944-0.5371094
		c3.4296265-4.3218994,7.6611938-7.8816528,9.4301758-13.62677c1.1046143-3.5872803,4.1953125-6.6989136,6.8547363-9.6027832
		c1.0187378-1.1124878,3.3045044-1.1071777,5.0352173-1.5167847c4.8140259-1.1390381,9.6035156-2.434021,14.4689941-3.2908936
		c7.9697266-1.4033813,15.9942627-2.4936523,23.9907837-3.7474365c3.8002319-0.5958862,7.6010132-1.8499146,11.3804321-1.7727051
		c6.9195557,0.1412354,13.449646-3.7485962,20.5432739-1.649353c1.3227539,0.3913574,3.0331421-0.7886963,4.5703735-0.8088989
		c3.7957153-0.0499878,7.5950317,0.2265625,11.392395,0.2132568c1.3444824-0.0046997,2.746582-0.3033447,4.0184326-0.7583008
		c2.4865723-0.8894043,4.7783203-1.3899536,7.5357666-0.53125c1.9030762,0.5925293,4.2313843-0.1946411,6.3711548-0.3438721
		c2.1223755-0.1480103,4.2567749-0.1813354,6.3676147-0.4241943c2.788147-0.3204956,5.5903931-1.2737427,8.3287964-1.0907593
		c3.9251099,0.2623291,7.8429565-1.5692139,11.7575073,0.0944214c0.5631714,0.2393188,1.4326782-0.3659058,2.1564941-0.3536377
		c1.2858276,0.0216675,2.602417,0.4550781,3.8444214,0.27948c1.5619507-0.2210693,3.0927124-0.8034058,4.5718994-1.3930054
		c0.5256348-0.2095337,0.8606567-0.8972168,1.4616699-1.5657959c2.6350708,3.434082,6.0966797,1.4985962,9.2150879,1.7908936
		c3.6594238,0.3430786,7.3029175,0.9317627,10.9681396,1.1095581c2.2151489,0.1074829,4.456604-0.5066528,6.6895142-0.5346069
		c2.3766479-0.0296631,4.7556763,0.2926636,7.1365967,0.3804321c1.7827148,0.0657349,3.6642456,0.3579712,5.3331909-0.0853882
		c2.4481812-0.6502686,5.4242554-0.3770752,6.3018188,0.6922607c2.7294922-0.5281982,5.1097412-1.3250122,7.4988403-1.3526001
		c2.1964111-0.0253296,4.4023438,0.7774048,6.489563,1.3730469c0.8400269,0.0407104,1.6859741,0.0317993,2.5188599,0.1315308
		c2.5515137,0.3056641,5.0222778,1.5760498,7.6629639-0.1832275c0.9550171-0.6362915,2.607605-0.3634644,3.9275513-0.2797241
		c1.6524658,0.1048584,3.289978,0.4438477,4.9348755,0.6747437c0.086731,0.012207,0.1990356-0.0849609,0.2719727-0.0577393
		c5.3913574,2.0151978,10.9750977-0.2838135,16.1931152,0.4743652c5.6358643,0.8189087,11.7146606-0.5425415,17.0128784,2.6594849
		c0.6914673,0.4179688,2.0540771,0.4276123,2.748291,0.0189209c3.2592163-1.9185181,6.3922119-0.2861938,9.5776367,0.0424805
		c2.2816162,0.2352295,4.5736694,0.3748169,6.8630981,0.5272217c5.2728882,0.3510742,10.5446167,0.7299805,15.8217773,0.9980469
		c1.7606201,0.0893555,3.5543823-0.3165894,5.3015137-0.1553345c2.9609985,0.2736206,5.8986206,0.8067627,8.8428955,1.2515259
		c3.90271,0.5894775,7.7643433,1.2462158,11.7763062,1.0560303c2.8935547-0.1373291,5.8337402,0.4899902,8.7388916,0.8814087
		c2.3006592,0.3098755,4.5965576,1.1730957,6.8640137,1.0760498c2.7091064-0.1158447,5.1005859,0.117981,7.2346191,1.8807373
		c0.206665,0.1707764,0.6779785,0.1203003,0.9951172,0.0432129c3.7836914-0.9192505,7.5321045-1.151123,11.244751,0.3588257
		c0.6013184,0.2446289,1.3236084,0.4553833,1.939209,0.3586426c3.673584-0.5782471,7.2382813,1.3594971,10.6661377,0.9625244
		c7.0490723-0.8164063,13.3463135,3.5178833,20.3408203,2.3312378c0.7752686-0.1314697,1.6748047,0.6694336,2.553833,0.8889771
		c0.7431641,0.1856689,1.5427246,0.2268066,2.3128662,0.2007446c0.8045654-0.0273438,1.869751-0.598999,2.3609619-0.262085
		c2.6558838,1.8209839,5.7242432,1.6621094,8.6239014,2.3701172c3.2205811,0.786377,6.2907715,0.399231,9.4173584,0.649292
		c2.755127,0.2203979,5.8869629-0.0623169,7.3238525,2.8174438c2.5932617,0.1864624,4.9536133,0.3850708,7.3178711,0.5144653
		c1.274292,0.0697632,2.5584717-0.0360107,3.8314209,0.0448608c0.8574219,0.0545044,1.7163086,0.2472534,2.5487061,0.4732666
		c0.5281982,0.1433716,0.9874268,0.5953979,1.5142822,0.6796265c3.9962158,0.638916,8.0563965,0.9874268,11.9819336,1.913208
		c2.1697998,0.5118408,4.0709229,2.0738525,6.1774902,2.9628296c3.6268311,1.5303955,7.253418,3.2668457,11.369751,1.5338745
		c0.5927734-0.2496338,1.446167-0.1022339,2.1134033,0.0891724c2.0184326,0.5793457,4.0063477,1.2659302,6.0030518,1.9200439
		c1.1920166,0.390625,2.5428467,0.5603027,3.5362549,1.2446289c2.8304443,1.9500122,6.4379883,0.7368774,9.4536133,3.0678101
		c2.8150635,2.1758423,6.9230957,2.6544189,10.4268799,3.9736938c1.7218018,0.6483765,3.3791504,1.4769897,5.0391846,2.2791748
		c3.8117676,1.8421631,7.6074219,3.7174683,11.4089355,5.5806885c0.5758057,0.2821655,1.1529541,0.5623779,1.7215576,0.8584595
		c3.5668945,1.8574219,7.1275635,3.7262573,10.6993408,5.5741577c0.9550781,0.4942627,1.9384766,0.9345703,2.914917,1.3865356
		c0.3193359,0.1478882,0.8515625,0.1644287,0.9581299,0.3936768c1.2585449,2.7062378,2.545166,5.4058228,3.6363525,8.1812744
		c0.7506104,1.9090576,1.0944824,3.9763794,1.817749,5.8984985c1.833252,4.8720703-0.2318115,9.6087646-0.4361572,14.4009399
		c-0.098999,2.3226318-0.7451172,4.6713867-1.4674072,6.9035034c-0.6688232,2.0668945,0.1171875,2.6464233,1.9589844,3.0744629
		c7.8101807,1.8151855,15.604126,3.7037354,23.3782959,5.6676025c1.8620605,0.4703979,3.5792236,1.1558228,5.2402344,2.4663696
		c1.5756836,1.243042,4.1191406,1.2296753,6.2092285,1.8606567c1.526123,0.4607544,3.0073242,1.0704346,5.1812744,1.8572998
		c0.8897705,0.7629395,2.5140381,2.0665894,4.0361328,3.4803467c2.6558838,2.4666748,5.3007813,4.9493408,7.8519287,7.5228882
		c2.1760254,2.1950684,4.251709,4.4936523,6.2932129,6.8156738c0.7824707,0.8898926,1.5290527,1.8969116,1.9724121,2.9812622
		c0.8778076,2.1464844,1.3635254,4.4611206,2.3204346,6.5656738c1.4147949,3.1119995,2.6352539,6.1557617,2.3293457,9.7212524
		c-0.1268311,1.4781494,0.8352051,3.0165405,0.9870605,4.5584717c0.3596191,3.6518555,0.5465088,7.321228,0.7642822,10.9859619
		c0.0429688,0.7212524-0.2888184,1.5063477-0.1107178,2.1717529c2.3702393,8.8499146-1.0759277,15.1689453-7.6218262,21.1568604
		c-5.491333,5.0233154-11.7650146,8.2664185-18.3734131,10.848938c-5.7662354,2.2532349-11.9719238,3.9072266-18.1135254,4.5194092
		c-5.6054688,0.5587769-11.2666016,0.6724243-16.2609863,3.2861328c-2.895752,1.5154419-5.1169434,4.3265381-7.6210938,6.5773926
		c-0.4095459,0.367981-0.6241455,1.0284424-1.0783691,1.2589722c-3.1629639,1.6050415-6.2434082,3.5245972-9.592041,4.5663452
		c-2.9222412,0.9089355-6.1815186,0.6764526-9.2523193,1.1863403c-2.0084229,0.3334961-4.0550537,0.8565674-5.894165,1.7064819
		c-4.2819824,1.9788818-8.4891357,4.1335449-12.6181641,6.4133911c-0.611084,0.3374634-1.1398926,1.9839478-0.8408203,2.6132202
		c1.458374,3.0684204,3.1728516,6.0196533,4.9005127,8.9510498c0.2600098,0.440918,1.0662842,0.7821655,1.625,0.7897949
		c5.1243896,0.0702515,10.34729,0.6594849,15.3409424-0.145752c3.3012695-0.5323486,6.1796875-0.3789063,9.2144775,0.5217896
		c0.3577881,0.1060791,0.744751,0.2026367,1.1103516,0.1796875c5.3278809-0.3341064,10.6514893-0.8988037,15.9819336-0.9697876
		c3.8881836-0.0517578,7.7824707,0.5811768,11.6789551,0.8293457c2.0913086,0.1332397,4.2235107-0.1068115,6.2821045,0.1964722
		c2.185791,0.3219604,4.8442383,0.4763794,6.3388672,1.7918701c2.7906494,2.4560547,6.4471436,2.8575439,9.3948975,5.2912598
		c4.8289795,3.9863892,6.7407227,9.4399414,9.744751,14.3397827c1.3781738,2.2478027,2.1429443,4.9361572,2.8133545,7.5213623
		c0.2629395,1.0133667-0.8898926,2.3519897-0.7231445,3.4389648c1.1768799,7.6705322-2.4465332,13.9163818-5.8319092,20.21698
		c-1.7104492,3.1831665-3.3267822,6.5293579-5.6342773,9.2520752c-3.1325684,3.6957397-5.6552734,8.0944824-10.2039795,10.4176636
		c-0.5484619,0.2800293-1.53479,0.5873413-1.8374023,0.3258057c-2.5495605-2.203064-4.9700928-0.4671631-7.1694336,0.3893433
		c-4.15271,1.6173096-8.0512695,1.2114868-12.2893066,0.2640991c-3.3549805-0.750061-7.0252686,0.0515747-10.5201416-0.2479858
		c-5.4935303-0.4708252-11.177124,1.1636963-16.4974365-1.458252c-0.5668945-0.2793579-1.4195557-0.0202026-2.1331787,0.052002
		c-0.6351318,0.0643311-1.3702393,0.4891357-1.8751221,0.2880249c-7.644165-3.0455933-15.65979-1.2923584-23.4842529-1.9282837
		c-2.8337402-0.2303467-5.6278076-0.923645-8.4594727-1.2200928c-0.8845215-0.0925903-1.8251953,0.5913086-2.7528076,0.6320801
		c-5.5100098,0.2429199-11.0341797,0.696167-16.5330811,0.5007935c-4.9575195-0.1762085-9.8873291-1.1074829-14.833374-1.6696167
		c-0.7340088-0.0834961-1.4909668,0.0598145-2.2366943,0.0504761c-4.3294678-0.053833-8.6820068,0.1317139-12.980957-0.2631836
		c-3.6409912-0.3345337-7.2189941-1.350647-10.8271484-2.0536499c-0.5428467-0.1057739-1.2476807-0.4043579-1.6236572-0.1828613
		c-3.1516113,1.8562012-6.0860596,1.1668091-9.3338623-0.0106201c-1.8045654-0.6540527-4.1268311,0.177002-6.2188721,0.2498779
		c-5.8238525,0.203125-11.6483154,0.4526367-17.4742432,0.5040283c-4.3175049,0.0380859-8.6369629-0.2249146-12.9564209-0.3181152
		c-7.0881348-0.1529541-14.1778564-0.2459717-21.263916-0.461853c-0.7021484-0.0214233-1.3837891-0.71875-1.331543-0.6898193
		c-3.3725586,0.366394-6.0987549,0.8814697-8.8295898,0.9072266c-3.9951172,0.0375977-7.9925537-0.3737793-11.9908447-0.4163208
		c-6.217041-0.0662231-12.4355469,0.0275879-18.6535034,0.0324097c-3.6331177,0.0027466-7.2675171-0.1038818-10.8990479-0.0358887
		c-3.4592896,0.0648804-6.8869629,0.4610596-10.2466431-1.0200806c-0.9005127-0.3969727-2.2984009,0.3538208-3.4719849,0.5535889
		c-3.4705811,0.5906982-6.9371338,1.2092285-10.4177856,1.7336426c-1.453186,0.218811-2.9365845,0.2786865-4.4086914,0.3189697
		c-1.8032227,0.0493164-3.6638794,0.2834473-5.4036255-0.055481c-5.5595093-1.0827637-11.0935059,1.8247681-16.6378784-0.0212402
		c-0.6558838-0.2183228-1.6159668-0.34375-2.1351929-0.0245361c-5.1065063,3.1394653-11.1933594,2.6020508-16.6427002,4.5166626
		c-3.1482544,1.1060791-6.0625,6.1937256-3.8911133,8.5653076c1.8440552,2.0141602,3.7402344,4.4698486,7.2017822,4.2548828
		c2.8796997-0.178894,5.6716919-0.0621948,8.5357666,1.2659302c2.0249023,0.9390259,4.7820435,0.2055054,7.192627,0.4297485
		c3.0393066,0.2828369,6.0491943,0.9145508,9.0905762,1.1282959c1.5137329,0.1063232,3.0767212-0.5936279,4.6039429-0.5406494
		c1.3247681,0.0460205,2.6122437,0.7606201,3.9490967,0.9624023c2.0870361,0.3149414,4.2648315,0.8724365,6.2926636,0.572876
		c5.4602051-0.8066406,10.6964722,2.4312744,16.2160034,0.5325928c3.9820557-1.369751,7.953064,0.2803955,11.9090576,0.7835693
		c3.2755737,0.4165039,6.5335083,0.975708,9.7944946,1.5009766c0.9782104,0.1575928,1.9341431,0.5294189,2.9124146,0.5838623
		c0.6546631,0.0362549,1.3468018-0.5056152,1.9937744-0.4512939c1.2833252,0.1079102,2.5471191,0.4489746,4.1790771,0.7630615
		c0.6307373-0.1561279,1.7961426-0.6802979,2.9633789-0.6843262c2.3551025-0.0081787,5.1689453-0.4688721,6.9381104,0.631958
		c1.7595215,1.0949707,3.3662109,1.4193115,5.2078857,1.7053223c0.90979,0.1413574,1.7728271,0.5828857,3.1697998,1.0656738
		c2.1365967-1.0150146,4.6329346-1.7791748,7.8369141-0.0618896c1.5924072,0.8535156,4.4460449-0.555542,6.6992188-1.0716553
		c0.847168-0.1940918,1.6325684-1.1334229,2.4072266-1.086792c3.3391113,0.2006836,6.6569824,0.7452393,9.9957275,0.9620361
		c2.7420654,0.1778564,5.5026855,0.085083,8.2550049,0.0859375c6.9914551,0.0023193,13.9830322-0.0150146,20.9744873-0.0155029
		c28.1793213-0.0018311,56.3621826,0.2657471,84.536377-0.114502c13.6849365-0.1846924,27.7987061,8.7092285,31.1831055,24.5964355
		c0.7550049,3.5449219,0.4866943,7.3404541,1.4874268,10.7890625c0.7084961,2.4415283,0.3829346,4.3457031-0.0926514,6.6844482
		c-0.6378174,3.1365967-3.1350098,4.3087158-5.0102539,6.0367432c-1.7337646,1.5977783-4.2268066,2.3355713-6.1848145,3.7332764
		c-4.4555664,3.1804199-9.4188232,4.8892822-14.8084717,5.0802002c-9.5606689,0.3388672-19.1306152,0.4157715-28.6955566,0.6427002
		c-1.0223389,0.024292-2.1120605,0.1361084-3.0452881,0.5153809c-6.6900635,2.7193604-13.2733154,1.3770752-20.0667725,0.1807861
		c-5.5760498-0.9819336-11.3913574-1.7420654-17.0623779,0.5699463c-1.2131348,0.494751-2.9868164-0.5004883-4.5178223-0.6483154
		c-4.6204834-0.4464111-9.2415771-0.9753418-13.8752441-1.1760254c-8.2944336-0.3596191-16.6022949-0.4129639-24.8964844-0.7767334
		c-3.8339844-0.168335-7.6422119-0.8670654-11.4754639-1.1268311c-1.920166-0.130127-3.927124-0.0655518-5.7940674,0.3566895
		c-2.87146,0.6494141-5.7235107-0.296875-7.0487061-3.2183838c-1.78479,0.7661133-3.5350342,1.8146973-5.4259033,2.2459717
		c-1.9082031,0.4353027-3.9727783,0.4628906-5.9385986,0.3018799c-2.9749756-0.2434082-5.9177246-1.1114502-8.8850098-1.1712646
		c-7.4952393-0.151123-15.0167236-0.3114014-22.4857788,0.175293c-3.2677002,0.2128906-6.4025269,0.0767822-9.6203613-0.1561279
		c-2.0202026-0.1462402-4.0874634,0.5152588-6.1442871,0.6850586c-4.6270752,0.3818359-9.262207,0.6640625-13.8911133,1.0253906
		c-2.4762573,0.1932373-4.9423828,0.5874023-7.4202881,0.6677246c-2.2643433,0.0733643-4.5393677-0.1368408-6.8081055-0.2529297
		c-3.2375488-0.1655273-6.5305176-1.1131592-9.5905151,0.8708496c-0.6137085,0.3978271-1.3939819,0.7799072-2.0907593,0.7683105
		c-3.8341675-0.064209-7.6815186-0.5405273-11.4956055-0.3371582c-7.3206787,0.3903809-14.6380615,0.9956055-21.9265747,1.7891846
		c-6.1519775,0.6697998-12.2938232,1.5527344-18.382019,2.6610107c-10.1748657,1.8521729-20.4085083,2.5825195-30.7371826,2.9945068
		c-6.3521118,0.253418-12.6121826,2.3111572-18.9659424,3.1716309c-6.260498,0.8479004-12.5785522,1.3464355-18.8875732,1.7341309
		c-4.4005127,0.2706299-8.8338623-0.0250244-13.2417603,0.1728516c-2.0966187,0.0942383-4.1533203,0.9519043-6.2541504,1.1044922
		c-3.3259888,0.241333-6.6958008-0.0306396-10.0062866,0.3104248c-3.0602417,0.3154297-6.0665894,1.1525879-9.0977173,1.7548828
		c-0.2775879,0.0551758-0.6273193,0.1987305-0.8341064,0.0910645c-3.0668945-1.597168-5.0397949,1.2453613-7.5287476,1.9261475
		c-0.7549438,0.206543-1.4364624,1.3774414-1.7236328,2.2479248c-0.1114502,0.3376465,0.8728027,1.2176514,1.510376,1.5883789
		c2.0125732,1.1702881,4.0933228,2.2243652,6.1596069,3.3005371c0.2409058,0.1254883,0.6140137,0.2359619,0.8276367,0.1384277
		c2.4899902-1.137207,3.3621216,0.7802734,4.7159424,2.4509277c1.7255249-1.8835449,3.6292725-0.8596191,5.8251343-0.3504639
		c4.2642822,0.9888916,8.6971436,1.2301025,13.0374146,1.9232178c1.4564819,0.2325439,2.8152466,1.0396729,4.2693481,1.3336182
		c2.8128052,0.5682373,5.6602783,0.9663086,8.4974365,1.4094238c0.2579346,0.0401611,0.5978394-0.0292969,0.8104248-0.1765137
		c2.6622925-1.8450928,4.2827148-1.4754639,7.4903564-0.246582c2.821228,1.0809326,6.0507813,1.541626,9.0895386,1.5004883
		c4.1581421-0.0560303,8.2977295-1.0048828,12.4638062-1.2347412c1.4331055-0.0791016,2.9187622,0.8614502,4.3869629,1.3148193
		c0.5143433,0.1586914,1.1876831,0.522583,1.5518799,0.3345947c3.1152344-1.6083984,5.7675171-0.0675049,8.6590576,0.838623
		c1.8353271,0.5749512,4.0142212,0.0960693,6.036438,0.0205078c2.0450439-0.0762939,4.1702881-0.6424561,6.1055908-0.2432861
		c1.7741699,0.3658447,3.3417969,1.7329102,4.9093628,2.6080322c2.336731-0.7130127,4.7578125-1.9814453,7.2113647-2.0478516
		c2.3365479-0.0631104,4.6845703,1.2402344,7.0723267,1.7196045c1.1375732,0.2282715,2.3798218-0.1192627,3.5733643-0.1037598
		c2.0822144,0.0269775,4.1665039,0.0848389,6.2443237,0.2171631c2.897644,0.1844482,5.5095825,2.0150146,8.7630615,0.5316162
		c2.2720947-1.0361328,5.2944946-1.5213623,6.9991455,0.9145508c3.538208-0.5286865,6.4874268-2.1087646,10.1331177-0.5161133
		c1.5621338,0.682373,4.3141479,2.8146973,6.1427612-0.3730469c0.1254272-0.2186279,0.703125-0.282959,1.0549927-0.2504883
		c3.5256348,0.3248291,7.0482178,0.6824951,10.571167,1.0362549c1.4728394,0.1478271,2.944397,0.3088379,4.5817871,0.2822266
		c0.9759521,0.1052246,1.9572144,0.3355713,2.9269409,0.2941895c4.364624-0.1859131,8.7295532-0.6690674,13.0869751-0.5968018
		c2.3897705,0.0395508,4.8017578,1.5046387,7.1358643,1.3432617c2.2241211-0.1535645,4.5693359,1.9385986,6.7684326-0.2751465
		c0.2842407-0.2862549,1.5884399,0.4405518,2.5629272,0.7423096c0.0795288-0.782959,0.1516113-1.4919434,0.2547607-2.5073242
		c0.5518188,0.2340088,1.112793,0.6207275,1.246582,0.5065918c2.8605957-2.4400635,5.4341431,0.5124512,8.1497803,0.378418
		c0.4053955-0.0200195,0.8898315-0.1259766,1.1865234-0.3734131c1.3886719-1.1583252,2.5102539-1.2045898,3.1698608,0.7987061
		c1.817627-1.9835205,3.6343994-2.1395264,5.9158325-1.177124c1.1671143,0.4921875,2.7094727,0.1575928,4.0777588,0.0970459
		c2.7061768-0.119873,5.8540039-1.2390137,7.9924316-0.2161865c2.2802734,1.0906982,4.5422363-1.4041748,6.4588623,0.8197021
		c0.3909912,0.4537354,2.0079346-0.0844727,3.0422363-0.2662354c1.217041-0.2139893,2.7248535-1.1403809,3.5661621-0.7073975
		c3.2474365,1.6710205,6.5395508,0.0650635,9.8032227,0.5253906c3.2358398,0.4562988,6.6179199-0.2058105,9.9353027-0.1954346
		c0.9195557,0.0028076,1.8193359,0.8959961,2.7583008,0.9639893c3.7886963,0.274292,7.5895996,0.4943848,11.3850098,0.479248
		c0.927002-0.0036621,1.8123779-1.3398438,2.7816162-1.4405518c4.9434814-0.5133057,9.8863525-1.4003906,14.8781738-0.0650635
		c1.204834,0.3221436,2.6307373-0.1903076,3.9560547-0.3068848c0.8393555-0.0737305,1.6938477-0.2510986,2.5186768-0.1641846
		c2.7285156,0.2873535,5.4560547,0.6123047,8.166626,1.0339355c7.0914307,1.1031494,14.1868896-0.4921875,21.262207,0.0549316
		c6.2115479,0.4803467,12.3964844,1.2965088,18.6003418,1.8887939c1.8395996,0.1755371,3.7486572-0.1497803,5.5471191,0.1820068
		c3.8342285,0.7070313,7.5977783,1.7922363,11.427002,2.5332031c2.7199707,0.5263672,5.5551758,0.5175781,8.2340088,1.175293
		c1.8572998,0.4559326,3.453125,1.9797363,5.3105469,2.4327393c5.213501,1.2712402,9.5146484,4.1523438,13.8500977,7.0865479
		c6.7927246,4.5974121,9.5936279,11.4595947,10.9161377,19.1044922c0.4624023,2.6726074,0.8452148,5.5494385,0.3482666,8.1584473
		c-1.0581055,5.5543213-4.675415,9.2354736-10.1003418,10.850708c-5.7680664,1.7171631-11.5461426,3.5047607-17.4366455,4.6741943
		c-4.7734375,0.9476318-9.7194824,1.3944092-14.5895996,1.3994141c-6.979248,0.0070801-13.9570313-0.6677246-20.9406738-0.8632813
		c-1.3800049-0.0386963-2.7681885,1.0633545-4.1794434,1.1387939c-3.9847412,0.2130127-7.9836426,0.1499023-11.9764404,0.2253418
		c-3.8114014,0.0720215-7.6311035,0.048584-11.4313965,0.303833c-6.5279541,0.4387207-13.0356445,1.2058105-19.5667725,1.5596924
		c-4.9447021,0.2680664-9.9135742,0.0561523-14.869751,0.1551514c-3.3909912,0.067749-6.8125,0.6811523-10.1605225,0.3820801
		c-6.2746582-0.5605469-12.2706299,1.5543213-18.4239502,1.5112305c-5.4990234-0.0385742-11.0218506,2.2811279-16.5179443-0.0830078
		c-0.4301758-0.1850586-1.098999,0.0909424-1.6292725,0.2468262c-5.5821533,1.6407471-11.2664795,2.0047607-17.0758057,1.9512939
		c-3.8532715-0.0354004-7.7146606,0.8881836-11.5741577,1.3684082c-0.6528931,0.0810547-1.3243408,0.18396-1.9707031,0.1171875
		c-2.6401367-0.2727051-5.2785034-0.8917236-7.9086304-0.8479004c-3.4082642,0.0567627-6.8040771,0.6704102-10.2127075,0.9558105
		c-2.3751831,0.1989746-4.7749634,0.4399414-7.1398926,0.2889404c-1.2585449-0.0803223-2.4664917-0.9539795-3.6972656-1.4694824
		c0.0947876-0.2346191,0.1895752-0.4691162,0.2843628-0.7036133c-5.5350342,0.4256592-11.0681152,0.8826904-16.6072998,1.2452393
		c-0.9055786,0.0592041-1.8326416-0.3509521-2.7597656-0.4533691c-2.3864136-0.2635498-4.7901611-0.3936768-7.1656494-0.7281494
		c-3.7844849-0.532959-7.5803223-1.0522461-11.3169556-1.8363037c-2.852356-0.5986328-5.4456787-2.37854-8.6351318-1.1251221
		c-0.977417,0.3841553-2.3955078-0.1873779-3.565918-0.4954834c-2.2843628-0.6011963-4.4973145-1.651001-6.8102417-1.9293213
		c-4.4758911-0.5385742-9.0890503-1.354248-13.4810791-0.7857666c-4.6813354,0.605835-8.7512817-0.8503418-13.1159668-1.5196533
		c-5.1210938-0.7856445-10.3083496-1.4165039-15.6442871-0.6889648c-5.3358154,0.727417-10.8521729,0.0632324-16.2197876,0.6479492
		c-3.4163208,0.3721924-6.321228-0.4807129-9.5057983-1.225708c-2.9039917-0.6793213-6.4881592-0.6419678-9.2103271,0.4638672
		c-13.2224731,5.3706055-26.1358643,11.4949951-40.4532471,13.6932373
		c-4.9658813,0.7625732-9.7664795,2.6688232-14.7382202,3.3046875c-4.1952515,0.5367432-8.5302124,0.0340576-12.8009644-0.0906982
		c-2.7674561-0.0808105-5.5557251-1.1347656-8.2210693,0.7314453c-0.6117554,0.4283447-1.8166504,0.0286865-2.7470093-0.0205078
		c-3.2202759-0.1704102-6.4818115-0.0928955-9.6491089-0.6000977c-3.8682861-0.6193848-7.9445801,0.1303711-11.6274414-1.9549561
		c-1.4171143-0.8023682-3.2185669-1.0297852-4.8809204-1.276123c-5.4933472-0.8135986-10.1576538-3.0125732-13.6208496-7.5147705
		c-0.7614746-0.9901123-2.5215454-1.6387939-2.6461792-2.5975342c-0.2164307-1.6639404-0.0871582-3.9713135,0.9205933-5.0701904
		c2.0404053-2.2248535,4.5169678-4.7749023,7.2572632-5.4890137c6.7285156-1.75354,13.6674805-3.0339355,20.5962524-3.6109619
		c12.2629395-1.0213623,24.3355713,0.5998535,36.2522583,3.7883301c6.192627,1.6569824,12.555481,3.184082,18.9121704,3.553833
		c4.6591187,0.2709961,9.5059204-1.1572266,14.132019-2.3568115c3.3531494-0.8695068,6.4920044-2.5809326,9.706604-3.9630127
		c1.9443359-0.8359375,3.3234253-1.9475098,3.4274902-4.456543c0.1155396-2.7838135-1.614502-5.3146973-4.508728-5.5129395
		c-1.8247681-0.1248779-3.6828003,0.0921631-5.4887085-0.137207c-5.4019775-0.6859131-10.7791748-1.5643311-16.1780396-2.2774658
		c-6.5355225-0.8631592-13.1015625-1.5137939-19.6174927-2.4997559c-2.9302368-0.4433594-5.7548828-1.5482178-8.6593628-2.2137451
		c-1.5320435-0.3510742-3.1282349-0.463501-4.703186-0.5782471c-3.9341431-0.286499-7.965332-0.0695801-11.7877197-0.868042
		c-5.6217651-1.1743164-11.0593262-3.2025146-16.6437988-4.5919189c-4.7693481-1.1864014-9.6278076-2.0249023-14.4650269-2.9189453
		c-0.8585205-0.1586914-1.8061523,0.1651611-2.9239502,0.2896729c-0.0469971-0.923584-0.0863037-1.6948242-0.1383057-2.7167969
		c-3.274292,1.6636963-6.2810669,0.6297607-9.3497925-0.3760986c-1.6896973-0.553833-3.5249634-0.6452637-5.2666016-1.0623779
		c-5.4559937-1.3063965-10.9366455-2.5356445-16.3278809-4.0744629c-2.1638184-0.6175537-4.1061401-1.9919434-6.173584-2.970459
		c-4.3497925-2.0588379-8.7489014-4.0159912-13.0645752-6.1430664c-3.5203247-1.7352295-7.1887207-3.3236084-10.3460083-5.5959473
		c-2.7926025-2.0098877-5.0844727-4.7745361-7.3751831-7.3997803c-1.2628174-1.4471436-2.0610962-3.2979736-3.0812988-4.9591064
		c-1.866333-3.0389404-2.4386597-6.3282471-1.3286133-9.6923828c0.4326782-1.3115234,2.0303955-2.239502,2.4606323-3.5510254
		c0.7334595-2.2363281,2.366394-1.2225342,3.6977539-1.5285645c3.9243164-0.9022217,7.8197021-1.9327393,11.7174683-2.9471436
		c12.0890503-3.1462402,24.4468384-3.5926514,36.843811-3.8016357c11.9278564-0.2010498,23.8539429-0.5311279,35.7788086-0.8724365
		c15.1152344-0.4324951,30.2297363-0.8985596,45.3415527-1.4353027c3.0102539-0.1069336,6.0060425-0.605957,9.0100098-0.90979
		c2.6245117-0.2655029,5.2459717-0.6080322,7.8777466-0.7468262c8.0229492-0.4232178,16.0540161-0.6988525,24.0742188-1.1655273
		c3.9534302-0.2301025,7.9052124-1.2000732,11.8309937-1.0638428c12.742981,0.4421387,25.2197266-1.0878906,37.7077026-3.5181885
		c5.3147583-1.0343018,10.9538574-0.5093994,16.4454346-0.505249c11.1011963,0.0083008,21.6382446-3.3718262,32.3938599-5.3903809
		c1.331665-0.2497559,2.3029175-2.4194336,3.4412231-3.6994629c-1.6851196-0.8598633-1.2354126-3.6594238-4.6837769-3.4354248
		c-4.3563843,0.2830811-8.8591919-1.4052734-13.2731323-2.3616943c-5.7640991-1.2490234-11.4777222-2.7451172-17.2654419-3.8640137
		c-2.2543945-0.4359131-4.9210815,0.5231934-6.9297485-0.300293c-4.9862061-2.0439453-10.2119751-0.3205566-15.2489624-1.6756592
		c-3.6412964-0.9798584-7.6203613-0.6557617-11.4298706-1.0820313c-1.6557617-0.1851807-3.2646484-0.791748-4.8934937-1.2122803
		c-0.4500122-0.1162109-0.8878784-0.3170166-1.343689-0.3679199c-6.7665405-0.755127-13.5310669-1.5324707-20.305542-2.2094727
		c-2.2474976-0.2244873-4.5288086-0.0986328-6.781311-0.2897949c-1.2528076-0.1063232-2.4793701-0.5302734-3.7151489-0.8223877
		c-0.3517456-0.0831299-0.7282104-0.3570557-1.0356445-0.2877197c-5.7415771,1.2943115-11.116394-0.9333496-16.6625977-1.4956055
		c-5.5990601-0.567627-11.1004639-3.2412109-16.9016113-1.3852539c-0.2590942,0.0828857-0.6622314,0.1469727-0.8328247,0.0114746
		c-4.1303101-3.2794189-9.3448486-0.5352783-13.7565308-2.4794922c-1.1887207-0.5238037-2.7748413-0.0704346-4.1552734-0.2474365
		c-7.7420044-0.9921875-15.4743652-2.0595703-23.21521-3.0612793c-4.1644897-0.5389404-8.3408813-0.9853516-12.5083618-1.5018311
		c-1.1162109-0.1383057-2.2466431-0.2855225-3.3236084-0.5928955c-3.0459595-0.8693848-6.0272827-1.3074951-9.2803955-0.869751
		c-2.4089355,0.3242188-4.9661865-0.5993652-7.4707031-0.8045654c-3.3484497-0.274292-6.7103882-0.5480957-10.0656128-0.5372314
		c-4.4417725,0.0144043-8.6173706-0.6986084-12.3702393-3.227417c-0.5372314-0.3620605-1.1862793-0.6901855-1.8153076-0.7640381
		c-7.9696655-0.9379883-12.1635132-7.1187744-17.1339111-12.2391357
		C679.4143677,1022.8157959,677.6481323,1021.1999512,676.0872803,1019.6923828z"/>
	<path style="fill:#FFFFFF;" d="M900.0430908,518.704895c0.3743286,0.0359497,0.7944336,0.2011719,1.1157837,0.0873413
		c2.5247192-0.894165,4.5186157,0.2371216,6.5516968,1.5150757c0.8382568,0.5269165,1.8959961,0.703064,2.8515625,1.0452881
		c1.0432739,0.3736572,2.0838623,0.7548218,3.0197754,1.5501099c2.3309326-0.7956543,4.2807007-0.4393311,6.4760132,1.4141235
		c1.4885254,1.2567139,3.8991699,1.4058228,5.8799438,2.0999756c1.4464722,0.506897,2.9277344,0.9730225,4.2800293,1.6757813
		c1.9102783,0.9927368,3.6593628,2.213501,6.0394897,1.6807861c0.6931152-0.1550903,1.616272,0.3104858,2.322876,0.6954346
		c2.7700195,1.5090942,5.4671021,3.1542358,8.2629395,4.6113281c0.5254517,0.2738647,1.3794556-0.0825806,2.3632202-0.1744385
		c-0.7838745,3.5897827,1.2386475,3.1356812,3.3774414,2.6166382c1.0141602-0.2460938,7.0519409,4.015686,7.5931396,4.8565063
		c0.4129639,0.6416016,1.56427,1.395874,2.1465454,1.2341309c2.0158081-0.5601196,3.213501-0.1834106,4.9058228,1.3415527
		c2.862854,2.5797119,6.4337769,4.3671875,9.6699829,6.5427856c1.0836182,0.7284546,2.052002,1.6279297,3.0771484,2.4440918
		c1.2866211,1.024292,3.4060669,1.0366211,3.7839966,3.1804199c0.0945435,0.536377,0.317688,1.109375,0.6514893,1.5313721
		c0.6088867,0.7698364,1.4268799,2.1119995,2.0140991,2.0402832c3.5608521-0.4348755,4.8497314,2.2415771,6.4625854,4.4083862
		c1.1708984,1.5730591,2.125,3.3154297,3.0812988,5.03479c0.2423706,0.43573,0.3477783,1.190918,0.1326294,1.5952759
		c-0.8828735,1.6593018-0.081604,2.5061646,1.1972656,3.4570923c3.2911377,2.4471436,3.9972534,7.1138916,2.3936768,11.0783081
		c-0.6890869,1.7037354,0.0217896,3.9234619-0.3911743,5.8014526c-0.5583496,2.5395508-1.4755249,5.0222778-2.4829102,7.427063
		c-0.2874756,0.6863403-1.4209595,1.0183105-2.1560669,1.5059204c0.7480469,4.5878906-2.5117188,7.52771-4.4779663,11.0015259
		c-0.3980103,0.7032471-0.6851196,1.4793091-0.9438477,2.2485962c-0.2946777,0.8762207-0.2834473,2.3970337-0.7808228,2.5724487
		c-2.5569458,0.9017944-2.2494507,3.1862183-2.93396,5.0593262c-0.8410645,2.3016968-1.9691162,4.2665405-4.7236328,5.1658325
		c-1.2668457,0.4135742-1.9954834,2.4755859-2.2802734,3.9278564c-0.1217651,1.5400391-0.0765381,3.1166992-0.4039917,4.6117554
		c-0.5053101,2.307312-1.2684326,4.5580444-1.9175415,6.8341064c-2.7199707,9.5391846-10.1921997,15.121582-17.666687,20.4350586
		c-4.1865845,2.9760742-9.0093994,5.2744751-13.8464966,7.0651855c-6.515625,2.4121094-10.3867188-1.1350098-9.4157104-8.0438232
		c0.7111206-5.0594482,4.131958-8.28125,8.0628662-10.8502197c5.0612793-3.3076782,10.6148071-5.894104,15.5110474-9.4110718
		c3.37323-2.4230347,5.916687-5.9766235,8.9800415-8.8668823c1.380127-1.3021851,3.0080566-2.4904175,4.7376709-3.2286377
		c1.5045166-0.6422119,2.6132813-1.0482788,2.8481445-2.9638062c0.12677-1.0339966,1.5244751-1.8595581,1.8527832-2.9310913
		c1.0843506-3.5396118,1.947876-7.1471558,2.8820801-10.7322388c0.1343384-0.515625,0.1468506-1.0640869,0.2922363-1.5755615
		c0.6577759-2.3140869,1.4852905-4.371521-0.1436768-6.9284058c-1.079895-1.6950684-0.2839966-4.4884644-1.1034546-6.4693604
		c-1.1820068-2.8572998-2.9693604-5.4877319-4.675354-8.0994263c-2.8181152-4.314209-7.4092407-6.5119019-11.4830933-9.3248291
		c-2.0245972-1.3979492-3.9211426-2.9839478-5.9697266-4.3428955c-0.7423706-0.4924927-1.7872314-0.5021973-2.6447754-0.8527222
		c-2.3131104-0.9451904-4.6265869-1.6644287-6.368103-3.8660278c-0.9729004-1.2299805-3.194458-1.5213623-4.8964233-2.1114502
		c-1.6425781-0.5695801-3.418457-0.119812-4.6385498-2.4104004c-0.6424561-1.2061768-3.8984985-0.8226318-5.7824097-1.6140137
		c-2.4927979-1.0472412-4.7993164-2.5388794-7.1800537-3.8500977c-0.2357178-0.1298218-0.4198608-0.4643555-0.6464233-0.4832764
		c-4.4373169-0.37146-7.5782471-4.2237549-12.5426636-4.0133667c-2.9291992,0.1240845-5.9155273-2.8331299-8.9995117-4.1055298
		c-2.7207642-1.1226196-5.6248779-1.7943726-8.4240723-2.7362061c-1.4835815-0.4991455-2.9423828-1.0925293-4.3648071-1.7467041
		c-1.5478516-0.711792-2.7531738-2.489563-4.8391113-1.418457c-0.1947632,0.1000366-0.5689697-0.0310669-0.8085327-0.1546021
		c-2.9310303-1.5106812-5.8300781-3.0854492-8.7854614-4.5463257c-1.5961914-0.7890625-3.2854614-1.3892822-4.9309692-2.0790405
		c-2.9289551-1.2276001-5.7977295-2.6333008-8.7999878-3.6424561c-3.5058594-1.1784668-7.1755981-1.8682251-10.6848145-3.038208
		c-3.0988159-1.0330811-6.0789795-2.4247437-9.1037598-3.6768188c-2.5852661-1.0701904-5.1921997-2.0962524-7.7295532-3.2713623
		c-2.5968018-1.2027588-5.0907593-2.6271973-7.68573-3.8342285c-2.1557617-1.0027466-4.4275513-1.7554932-6.5864258-2.7523193
		c-4.1558838-1.9188843-8.4274902-3.6651611-12.3421021-6.0008545c-2.5712891-1.5343018-5.4168091-2.9213562-7.1275024-5.7497253
		c-0.7106934-1.1749878-2.0661621-2.12323-3.3348389-2.7691345c-5.4630127-2.7811279-9.7803955-7.0719604-12.9451294-11.9819031
		c-2.1016846-3.2607422-5.0952759-6.8204956-3.9724731-11.6683044c0.3914185-1.6900024-1.0093994-3.7241821-1.1430664-5.6326294
		c-0.0835571-1.1939697,0.5453491-2.5036621,1.0742798-3.6609802c1.1151123-2.4402161,3.0305786-4.4358521,2.362915-7.6560974
		c-0.2861938-1.3806763,1.0614624-3.4254761,2.1860352-4.7160034c4.461731-5.1199341,8.1848145-10.9555969,14.0161743-14.797699
		c0.6428833-0.423584,0.9377441-1.3598938,1.4284058-2.0333252c0.8453979-1.1602478,1.465332-2.0188904,3.3765259-2.3105774
		c2.3723755-0.3620911,4.4683228-2.4838257,6.7052612-3.809021c0.9319458-0.5520325,1.9484863-0.9621582,2.8746338-1.5225525
		c1.2530518-0.7581177,2.4710083-1.5773315,3.6743164-2.4131165c0.6051636-0.4203186,1.0790405-1.0680542,1.7240601-1.3865662
		c6.7184448-3.3184814,13.4403076-6.6313782,20.2015991-9.8612061c4.2368164-2.0238953,8.8369141-3.4503174,12.7319946-5.9794922
		c3.6677856-2.3816833,7.5988159-3.7015686,11.5743408-5.1942139c2.7329712-1.0261841,5.2235107-2.6804199,7.9060059-3.8647156
		c1.8822632-0.8310242,3.9269409-1.2859497,5.8594971-2.013916c2.0023804-0.7541809,3.9534912-1.6436768,5.9332886-2.4586792
		c4.4458618-1.8301392,8.8952637-3.6517944,13.3452759-5.4719849c0.1734009-0.0709534,0.4604492-0.0289612,0.5385742-0.1447449
		c3.4476929-5.109375,10.4523926-2.1338196,14.37677-6.2944031c0.475769-0.504364,1.9025879,0.028595,2.7532349-0.2857056
		c5.0461426-1.864624,10.0649414-3.805603,15.0682983-5.7833252c4.322998-1.7088013,8.5912476-3.5570068,12.9242554-5.2391357
		c3.9885864-1.5484314,8.0355835-2.9460144,12.0457764-4.4398193c0.6848145-0.2551575,1.3466187-0.6090393,1.9628296-1.0048523
		c2.3466187-1.5071716,3.2175293-1.5639648,5.0227051-0.6387329c2.9202881-1.2842712,5.3622437-2.3795166,7.8215332-3.4342651
		c3.0272827-1.2983704,6.0515137-2.6074829,9.1143799-3.8174744c1.0331421-0.4081421,2.1685181-0.649231,3.2774048-0.7554321
		c2.699585-0.2584839,5.1220703-0.9218445,6.7808228-3.3326416c0.3060303-0.4447632,1.1900635-0.8818359,1.6608887-0.7593994
		c2.8545532,0.7425232,4.8636475-1.2104492,7.0058594-2.29953c2.5686035-1.3057861,4.7354736-2.9692993,7.9186401-3.2371826
		c2.1433716-0.1803894,4.0880127-2.3729553,6.1818237-3.5588074c5.7908325-3.2795105,11.7205811-6.3304138,17.3669434-9.8392639
		c2.0773926-1.2909546,3.5220947-3.6047974,5.2408447-5.4655762c0.7041016-0.7623596,1.473999-1.4934692,2.0281982-2.3578796
		c0.8060303-1.2574158,1.7858887-2.5501709,2.0838623-3.9566345c0.6538086-3.0854797,2.2723389-5.5843201,4.1038818-8.0046692
		c0.7602539-1.0047607,1.6868896-1.5279541,0.7924805-3.302948c-0.8555908-1.697876-0.2987061-4.0533142-0.6706543-6.0627136
		c-0.4639893-2.5073547-1.6396484-4.9304504-1.8037109-7.4360657c-0.3394775-5.1813049-4.5112305-7.8073425-7.0675049-11.4964905
		c-0.7171631-1.0349121-1.8917236-1.747406-2.8314209-2.6343994c-4.6164551-4.357666-8.5914917-9.3973694-14.6620483-12.1171265
		c-3.4113159-1.5283203-6.475647-3.8637085-9.6087036-5.9660645c-1.519043-1.0193176-2.6784668-2.6534119-4.2780151-3.457428
		c-3.3380737-1.6779175-6.8128052-3.1174622-10.3183594-4.4208984c-5.142395-1.9119263-9.4362793-4.9335938-13.435791-8.6796265
		c-2.0897827-1.9573059-5.083374-2.950119-7.6704102-4.3757324c-2.8214111-1.5548401-5.7033081-3.0101929-8.4512329-4.6854095
		c-2.9813843-1.8175507-5.7835693-3.9297943-8.7706299-5.7370911c-1.8510742-1.1200104-3.9220581-1.870224-5.857605-2.8584442
		c-5.8850708-3.004837-11.7401123-6.0686798-17.630127-9.063736c-5.3918457-2.741684-11.0300293-5.0733032-16.1588135-8.2357941
		c-4.645813-2.8647308-8.8024292-6.5426178-13.072937-9.988205c-2.2810669-1.8404236-4.2260132-4.1031036-6.5369263-5.8995361
		c-3.8956299-3.0282898-6.4919434-7.0236359-9.0281982-11.1238708c-0.727417-1.1760406-1.9418335-2.053833-2.6516724-3.2371063
		c-1.2155762-2.0265503-2.3747559-4.1188965-3.2628784-6.3034363c-1.977417-4.8640137-3.9161987-9.7531433-5.609436-14.7210846
		c-2.7008057-7.924118-4.5008545-16.0361176-4.0126343-24.4957123c0.1634521-2.83255,0.3685913-5.6654053,0.6589355-8.487381
		c0.8225708-7.9944305,13.1740112-18.3266525,22.0366821-14.8814087c3.2145996,1.2496414,6.4190063,3.3932495,8.7260132,5.9446259
		c6.5199585,7.2106171,7.3956299,16.0806274,4.93396,24.9920959c-1.7979736,6.5091095-4.578064,12.8330688-7.6260376,18.8841705
		c-2.5422974,5.047226-3.2248535,9.9672852-1.9747925,15.3300018c0.385498,1.6536865,0.4373779,3.4298706,1.0783081,4.9681702
		c0.8410034,2.0183105,1.7010498,4.345993,3.2802734,5.6786194c4.3718262,3.6891327,7.6367798,8.865799,13.3880005,10.74823
		c4.7070313,1.5406799,8.9750977,4.4976654,14.3664551,3.9639893c2.1430664-0.2121429,4.3902588,1.0039825,6.6243286,1.2266541
		c2.1224365,0.2115784,4.2989502-0.1638031,6.434082-0.0201263c1.6765747,0.1128387,3.326416,0.623642,4.9130249,0.9425659
		c1.8070068,0,3.6603394-0.2773285,5.3967285,0.0555115c4.1009521,0.7861023,8.2356567,1.5942078,12.1845703,2.91008
		c2.9334717,0.9775238,6.203064,1.704071,8.1558228,4.5930786c0.3638916,0.5383301,0.802002,1.3229828,1.3132935,1.4184265
		c4.2355347,0.7904968,6.2139893,4.869873,9.7936401,6.6358795c0.9661865,0.4766541,1.3179321,2.0639343,2.1856689,2.8979797
		c3.8477783,3.6982727,8.1967163,6.9634247,11.572876,11.0406647c3.8532715,4.6534729,9.1721802,7.0558624,13.8579102,10.3695984
		c4.4692383,3.1607666,9.7486572,5.1517944,14.3905029,8.1001282c3.944458,2.5054016,8.4294434,3.6555176,12.4621582,5.8349304
		c1.1790771,0.637146,1.9660645,1.9845886,3.1323242,2.6637573c1.8363037,1.0693665,3.9552002,1.6676025,5.7481689,2.7937012
		c2.5856934,1.6239624,5.1956787,3.3172913,7.4190674,5.3855286c3.619873,3.3672485,7.1956787,6.8495178,10.3116455,10.6731262
		c3.6474609,4.4758301,8.1081543,8.5042114,9.2735596,14.6482239c0.2991943,1.5776367,1.3918457,3.0142212,2.1689453,4.4897766
		c1.4088135,2.6751099,2.4298096,5.3875427,2.1193848,8.5417175c-0.0799561,0.8135071,1.0889893,1.6848145,1.4543457,2.6194458
		c1.1070557,2.8326111,2.7115479,5.6514282,2.9892578,8.5829773c0.3691406,3.8951721-0.3305664,7.8916016-0.598877,12.3011475
		c0.2763672,0.1593628,1.0327148,0.5957336,2.1856689,1.2607727c-3.0495605,2.6251221-3.2808838,6.1914673-4.3237305,9.6030273
		c-1.0375977,3.3943481-4.2435303,6.3103027-6.9544678,8.9718628c-6.4537354,6.3361816-13.0845947,12.5020142-19.8479004,18.5068359
		c-1.9842529,1.7617188-4.6573486,2.7451172-7.005127,4.1017456c-0.550293,0.3179626-1.0494385,0.7235413-1.5932617,1.0538635
		c-2.2811279,1.3855896-4.5670166,2.7634583-6.857666,4.1333008c-1.8059082,1.0799561-3.5739746,2.2364502-5.4421387,3.1968079
		c-4.5039063,2.3152161-9.0474854,4.5543518-13.5932617,6.7871094c-2.9052124,1.4270325-5.779541,2.9489746-8.7840576,4.1331482
		c-2.9327393,1.1558838-6.0498047,1.8359375-9.0174561,2.9136353c-2.4136963,0.8765869-4.7306519,2.0217896-7.0788574,3.0739746
		c-0.4139404,0.1854553-0.7753906,0.727417-1.1525269,0.7189941c-4.2766113-0.0955505-7.3273926,2.7922974-10.9606323,4.2450562
		c-3.9631348,1.5846252-8.4110107,1.9433594-12.6276245,2.9225159c-0.6289673,0.1460266-1.1126709,0.8325806-1.725647,1.1486816
		c-1.9797363,1.0209656-3.9932251,2.8252869-5.9849854,2.8138428c-5.8427734-0.0336914-10.1782837,3.0737-14.7402954,5.8850098
		c-0.2410889,0.1485596-0.4491577,0.4777832-0.6845703,0.4898376c-7.3789673,0.379364-11.9052734,7.321228-19.12854,8.2609253
		c-2.2071533,0.2871094-4.300354,1.8433533-6.3302002,3.0180359c-4.2611084,2.4658508-8.4371338,5.0784912-12.6709595,7.5923157
		c-0.6257324,0.371521-1.3777466,0.5289612-2.0688477,0.7920532c-0.7006226,0.2666626-1.7019043,0.3348694-2.0493774,0.8454285
		c-2.9539795,4.3399048-7.706604,5.9895935-11.9906006,8.3930054c-1.0819702,0.6070557-1.5604858,2.2045288-2.4955444,3.1739807
		c-3.3670044,3.4908447-7.2659912,6.5779419-10.0773926,10.4596863c-2.1537476,2.9737549-2.7103271,7.0518799-4.4555054,10.3887024
		c-1.744751,3.3360901-1.0401611,6.8248901-1.5714111,10.218811c-0.62854,4.0153503,1.5956421,6.4296265,4.0201416,8.700592
		c3.4171143,3.2006836,6.9891357,6.2759399,10.755127,9.0518494c3.0896606,2.2774963,6.6118774,3.959198,9.8331909,6.0715637
		c1.225769,0.803833,2.1467285,2.0724487,3.206604,3.1291504
		C900.2610474,518.2033081,900.1520996,518.4541626,900.0430908,518.704895z"/>
	<path style="fill:#FFFFFF;" d="M1278.7128906,1110.1542969c-0.3695068-1.522583-1.5091553-4.2167969-1.6027832-6.9470215
		c-0.4257813-12.4187012,4.5446777-23.0209961,11.6741943-32.8050537c2.2304688-3.0609131,4.3728027-6.1955566,6.7611084-9.1289063
		c2.0198975-2.480957,4.2006836-4.8677979,6.5515137-7.0344238c4.5093994-4.1560059,8.7219238-8.9133301,13.9053955-11.9954834
		c8.5147705-5.0632324,16.0924072-12.2932129,26.5394287-13.5039063c5.8223877-0.6749268,11.69104-1.1315918,17.4241943,0.9594727
		c3.0135498,1.098999,6.8796387-0.3308105,8.7714844-2.8613281c0.605957-0.8105469,1.5992432-1.3674316,2.0812988-2.2275391
		c1.4439697-2.5767822,2.8266602-5.2000122,4.0235596-7.8981323c0.6237793-1.4065552,0.737915-3.0302734,1.2022705-4.5185547
		c0.9071045-2.9077759,2.4083252-5.7301025,2.7521973-8.6935425c0.7897949-6.8048096,4.7558594-11.18396,9.8852539-15.0651245
		c7.3320313-5.5478516,14.7539063-11.0202637,21.6663818-17.0637207c4.4263916-3.869873,8.0236816-8.6935425,11.9309082-13.1437988
		c0.3786621-0.4309692,0.2869873-1.2548218,0.4727783-1.8786621c0.7597656-2.5514526,1.3927002-4.9135132,3.3366699-7.1953125
		c2.8465576-3.3412476,4.5328369-7.6730957,6.6929932-11.5941772c0.3081055-0.5593262,0.3946533-1.2591553,0.7618408-1.7645874
		c4.2709961-5.8793945,6.385376-12.5812378,7.9466553-19.5909424c0.8426514-3.7834473,2.5654297-7.3632202,3.6901855-11.095459
		c0.4127197-1.3693848,0.2357178-2.9140015,0.3470459-4.3771362c0.2062988-2.715271,0.3223877-5.4431152,0.6737061-8.1398315
		c0.2921143-2.2426147,0.8846436-4.4450073,1.3077393-6.6721191c0.1402588-0.7380371,0.2698975-1.5030518,0.2305908-2.24646
		c-0.3503418-6.6223145-0.4710693-13.2739868-1.2388916-19.8492432c-0.3476563-2.9759521-1.6099854-6.0336914-3.1604004-8.635376
		c-2.2175293-3.7210693-4.998291-7.1236572-7.723999-10.5130005c-0.6868896-0.854248-2.0496826-1.2094727-3.1514893-1.6772461
		c-3.8677979-1.6424561-7.2750244-3.987793-11.4816895-5.2891235c-7.305542-2.2601318-14.4663086-2.5665894-21.6677246-1.2832642
		c-8.8178711,1.5712891-16.2163086,5.7541504-22.5936279,12.5135498
		c-4.7687988,5.0544434-7.6037598,11.1865234-11.7907715,16.4888916c-3.4163818,4.3262329-6.4628906,8.9429932-9.7233887,13.3944092
		c-1.3361816,1.8241577-4.4979248,2.4416504-6.6844482,1.5015869c-5.3586426-2.3036499-7.12854-7.3169556-9.5289307-12.0341187
		c-4.8643799-9.559082-5.1715088-19.7631226-5.5424805-30.1467896c-0.2657471-7.4381714,1.232666-14.1755981,4.1911621-20.8760986
		c2.4766846-5.6088257,7.0375977-8.7719116,12.0203857-11.5991211c9.4758301-5.3764648,19.9421387-8.1108398,30.2890625-11.1241455
		c1.7886963-0.5209351,3.7568359-0.5863647,5.6422119-0.5881958c13.0919189-0.0128784,26.1928711-0.2410278,39.2735596,0.1624146
		c13.5513916,0.4180298,24.8895264,6.1691284,34.7839355,15.3780518
		c6.2753906,5.8407593,11.4338379,12.326416,15.0045166,20.0877075c0.5450439,1.1845703,0.9326172,2.442749,1.3737793,3.6737671
		c3.0654297,8.5518799,6.2431641,17.0739136,7.3991699,26.1642456c1.1077881,8.7125854,2.3536377,17.4116211,3.2492676,26.1463623
		c1.3013916,12.6940918-2.730835,24.3664551-7.5716553,35.7739868
		c-6.9020996,16.2648315-17.8388672,29.3518677-31.8876953,39.9840088c-3.0744629,2.3268433-5.6611328,5.293457-8.506958,7.9280396
		c-4.9227295,4.557251-9.803833,9.1624756-14.8269043,13.6068115c-7.5297852,6.6618652-14.9918213,13.3657227-20.1989746,22.1331787
		c-3.1221924,5.256958-5.852417,10.7884521-9.385376,15.7505493c-5.8642578,8.2365723-12.1645508,16.1508789-20.2764893,22.4375
		c-1.7116699,1.3265381-2.767334,3.5349121-4.02771,5.402832c-5.0541992,7.4898682-9.8409424,15.1743164-15.1949463,22.4417725
		c-2.7480469,3.7302246-6.548584,6.6722412-9.7393799,10.0957031c-1.1958008,1.2830811-1.7508545,3.2211914-3.0461426,4.34375
		c-5.0615234,4.3863525-8.5148926,10.0131836-12.567627,15.2133789
		c-6.8266602,8.7592773-16.2987061,13.8193359-27.0446777,16.1195068c-4.439209,0.9500732-9.1418457,0.7593994-13.7294922,0.8514404
		c-0.9304199,0.0187988-1.9572754-0.9274902-2.80896-1.595459
		C1283.753418,1114.3983154,1281.7167969,1112.6455078,1278.7128906,1110.1542969z"/>
	<path style="fill:#FFFFFF;" d="M1051.8372803,648.0646973c-1.9985352-1.3273315-2.1452637-2.3719482-0.2641602-3.5205688
		c1.7431641-1.06427,3.4067383-2.2680664,5.0426025-3.4941406c0.5734863-0.4297485,1.1955566-1.0391235,1.3864746-1.6869507
		c0.4909668-1.6660767,0.8233643-3.3200684,2.9313965-3.7038574c0.2580566-0.046936,0.4897461-0.5696411,0.6235352-0.9145508
		c0.8579102-2.2133789,1.3834229-4.6216431,2.5933838-6.6170044c1.798584-2.9660034,2.673584-6.1519165,3.479248-9.4385986
		c0.1599121-0.6520386,1.1533203-1.0997925,1.401001-1.3201294c0.258667-2.4138184,0.6000977-4.4557495,0.6707764-6.506958
		c0.1323242-3.835083,0.1080322-7.6756592,0.1478271-11.513916c0.0285645-2.7471313,0.0927734-5.494812,0.0517578-8.2408447
		c-0.0081787-0.548645-0.3388672-1.1463013-0.6623535-1.6257935c-0.819458-1.2146606-2.0634766-2.258606-2.5114746-3.5827026
		c-0.7940674-2.3477783-0.6081543-5.135437-1.7575684-7.2318115c-2.3087158-4.2109375-4.9868164-8.2835693-7.9908447-12.0297852
		c-2.6402588-3.2926025-5.8051758-6.2053223-8.9696045-9.0265503c-4.1351318-3.6865845-8.5429688-7.065918-12.7310791-10.6954346
		c-1.0545654-0.9138184-1.4804688-2.6781006-2.6119385-3.3525391c-2.5506592-1.5205078-5.446167-2.4542236-8.0395508-3.9142456
		c-1.9393921-1.0919189-3.4954834-2.8789063-5.4547729-3.9178467c-3.0783081-1.6322632-6.3433228-2.8581543-7.4248657-6.718689
		c-0.117981-0.4212646-1.3575439-0.5599976-2.0942383-0.7686157c-1.0314941-0.2921143-2.727478-0.2278442-3.0085449-0.8374023
		c-1.2653809-2.7440186-3.9373779-3.3171387-6.1576538-4.6190186c-3.0116577-1.7659302-5.8418579-3.9235229-9.0135498-5.3096924
		c-2.803894-1.2253418-4.5579834-3.2566528-6.3726807-5.4666138c-0.5117188-0.6231995-1.6004028-0.8199768-2.4608765-1.1006775
		c-2.666748-0.8699036-5.4487305-1.4652405-7.9976807-2.5927429c-2.0527954-0.907959-3.8275146-2.4410706-5.734375-3.6832886
		c-1.300354-0.8471375-2.6171875-1.6689148-3.9243774-2.5055847c-3.0493164-1.9517212-6.3473511-3.6120605-9.078186-5.9380798
		c-2.9578247-2.5193481-6.1978149-4.6403198-9.1352539-7.1108704c-2.2990112-1.9335022-3.8361816-4.8032532-5.5632324-7.3574524
		c-0.3010864-0.4452209,0.1229248-1.3908081,0.232666-2.1020508c0.507019-3.2857361,0.3044434-6.8432617,3.4697876-9.1177673
		c-0.0494385-4.6824951,2.984375-7.4915771,6.3733521-9.8588257c1.1735229-0.8197327,3.0210571-0.6746826,4.5606689-0.9703369
		c0.1436157,0.2871399,0.2872314,0.5743103,0.4308472,0.8614807c0.3982544-0.8084412,0.7758179-1.6279297,1.1986084-2.4233398
		c1.5467529-2.9101257,3.7200317-5.0179138,6.6616211-6.7253113c1.611084-0.9351196,2.8578491-2.1264038,4.8635254-1.9939575
		c0.364624,0.0240784,1.0499268-0.4624023,1.1065674-0.7950745c0.5465698-3.2075195,3.5375977-2.421051,5.4277954-3.4070435
		c1.2675781-0.6611938,2.4979858-1.4431458,3.8375244-1.8999023c0.942749-0.3214417,2.0408325-0.1871033,2.2407227-0.2005615
		c1.9771118-0.8056641,3.3059692-1.2909851,4.5870361-1.8803406c3.2109985-1.4771729,6.3881226-3.0285645,9.6057739-4.4907837
		c0.9978027-0.4533997,2.0791626-0.7258606,3.1278687-1.0635986c1.4417725-0.4642944,2.8757935-0.9599609,4.3364258-1.3562622
		c2.6626587-0.7223206,5.3521118-1.346283,8.0120239-2.0777893c2.2546997-0.6201172,4.491272-1.3097229,6.7212524-2.0147705
		c1.708313-0.5400696,3.4887695-1.6582031,4.2372437,0.8688049c2.791687-1.5162354,5.2192993-3.8041687,7.8284302-4.0343323
		c4.3928223-0.3875732,8.0421143-2.6699219,12.1818848-3.5200806c0.7009277-0.1439209,1.2197266-1.0241699,1.9145508-1.3891602
		c0.7432861-0.3903809,1.6218262-0.5149841,2.3930664-0.8625488c0.9035645-0.4073792,1.7055664-1.1016235,2.6383057-1.3720703
		c3.4561768-1.0023804,4.9381104-3.9530334,6.9019775-6.5238037c1.2851563-1.6823425,2.8254395-3.3973694,4.6368408-4.4045715
		c4.3565674-2.4222717,8.7626953-5.3352051,14.1275635-3.8236084c0.9534912,0.2686157,1.9042969,1.9282837,2.1330566,3.0882263
		c0.4215088,2.1376343,0.9122314,3.4440002,3.4804688,2.5515137c0.592041-0.20578,1.8209229,0.166626,2.1022949,0.6522217
		c0.3204346,0.5530701-0.0626221,1.5360413-0.2045898,2.3204651c-0.0393066,0.2176514-0.4241943,0.3780212-0.4532471,0.5914612
		c-0.2167969,1.5936584,0.1014404,3.4900513-0.6585693,4.7362976c-2.1915283,3.5935059-6.1376953,4.5368347-9.9016113,5.6188965
		c-1.7945557,0.5158691-3.55896,1.1461487-5.3690186,1.5958557c-2.4772949,0.6155396-4.9985352,1.0540771-7.4748535,1.6730347
		c-1.6669922,0.416687-3.3076172,0.9616089-4.927002,1.5412598c-3.8734131,1.3863525-7.6824951,2.9689026-11.6011963,4.2083435
		c-4.3771973,1.384491-8.8482666,2.4720764-13.2738037,3.7058716c-0.4503174,0.1255188-0.8800049,0.3445435-1.2994385,0.559021
		c-4.3684692,2.234375-8.7664795,4.4145813-13.0799561,6.7506714c-1.4912109,0.8076477-2.7384644,2.0536499-4.1511841,3.0204468
		c-3.5283203,2.4144287-7.1295776,4.7252197-10.6004639,7.2184143c-0.7246704,0.5205688-0.8920898,1.7546692-1.5262451,2.4751587
		c-1.9572144,2.2237244-4.5736084,3.9439697-5.3312378,7.0579834c-0.2738647,1.1253967-0.404541,2.2850342-0.6220703,3.4249268
		c-0.2752075,1.4420776-0.5726318,2.8799744-0.8599854,4.3197632c-0.2680054,1.3427429-1.7420044,2.7190247,0.1351318,4.0142212
		c0.1641235,0.1132813,0.2627563,0.6335754,0.1497803,0.7903442c-2.3422241,3.2495117,1.1619873,5.9761047,0.8560181,9.1408691
		c-0.1425781,1.474762,1.4185791,3.1142883,2.371582,5.0047913c1.8128052-0.0831604,3.0961304,1.1264038,4.5975952,2.9397278
		c1.9663086,2.3746033,4.8965454,4.0189514,7.5776367,5.7158813c3.0976563,1.9604797,6.3600464,3.6644897,9.585083,5.4170532
		c0.8513794,0.4626465,1.8285522,0.6938477,2.8800049,1.0798035c-0.0306396,0.4952393-0.0692749,1.1190491-0.1063232,1.7163696
		c0.2703857,0.0918274,0.5128174,0.2540283,0.6022949,0.1927185c1.7370605-1.1889954,2.6581421,0.3161011,3.9076538,1.0455322
		c1.9328003,1.1282959,4.0075073,2.0134583,6.3259888,3.1508179c0.0181885-0.1309204-0.0788574,0.5652466-0.1766357,1.2658081
		c4.0913086,0.5050049,8.0799561,0.8805542,10.9227295,4.2132568c0.1043701,0.1223145,0.3640137,0.2449951,0.4876709,0.1984253
		c3.0941162-1.1647339,4.8575439,0.1723022,5.8387451,3.0494385c0.0473633,0.138855,0.2784424,0.2481689,0.4465332,0.3081055
		c5.3162842,1.8945313,10.635376,3.781311,15.583252,6.1508789c1.9893799,1.2976074,3.9787598,2.5951538,5.9680176,3.8927002
		c1.7755127,0.5651245,4.1921387-0.199646,4.8048096,2.8755493c0.0151367,0.0758667,0.0970459,0.1986084,0.1479492,0.1986694
		c4.5687256,0.006958,5.6193848,5.6490479,10.1416016,6.2150269c1.6887207,0.2114868,3.0274658,2.8807983,4.6230469,4.3218384
		c0.7467041,0.6744995,1.7056885,1.1270142,2.6011963,1.6210327c1.6402588,0.9049683,2.9423828,1.8710938,3.2132568,4.0496216
		c0.2288818,1.8427124,1.1789551,3.5958252,1.6395264,5.4324951c1.6102295,3.062561,5.3278809,3.9144897,6.7365723,7.9039917
		c1.0429688,2.953186,1.3189697,6.0982056,2.5866699,8.9553833c0.2677002,0.6036377-0.1085205,1.4619141-0.0213623,2.1826782
		c0.2269287,1.8741455,0.7043457,3.7302856,0.7843018,5.6062622c0.0794678,1.8625488-0.2451172,3.7388916-0.3187256,5.6120605
		c-0.1280518,3.2575684,0.4841309,6.6464233-2.4598389,9.2329712c-0.5809326,0.510376-0.3044434,1.901001-0.6323242,2.8104248
		c-2.0751953,5.7567749-4.8673096,11.1100464-9.0053711,15.6930542c-0.4249268,0.4707031-0.8330078,1.072876-0.9610596,1.6752319
		c-0.4992676,2.3474731-1.5600586,3.7156372-3.4174805,2.8552856c-1.7910156,2.2175903-3.3823242,4.0256348-4.7849121,5.9697266
		c-1.3989258,1.9390869-2.6044922,4.017334-3.9033203,6.0291748c-0.5018311,0.7774658-0.8945313,1.6899414-1.5653076,2.2822876
		c-2.2839355,2.0166626-4.6700439,3.9172974-7.0150146,5.8647461c-0.1413574,0.1174316-0.387207,0.2650146-0.3789063,0.3842163
		c0.2838135,4.0766602-3.3702393,4.2271118-5.6641846,5.7544556c-0.6573486,0.4377441-1.1291504,1.1472778-1.7137451,1.7029419
		c-1.5623779,1.4848633-3.1407471,2.9529419-4.7110596,4.4295654c-1.4619141,1.3748169-3.6704102,2.5010376-4.2325439,4.1782837
		c-1.3238525,3.9504395-4.5571289,3.7423096-7.4993896,4.437439c-2.1326904,0.5039673-4.3256836,0.854126-6.3685303,1.6072998
		c-1.72229,0.6348877-2.1069336,0.3875122-1.7545166-1.3959351c0.3879395-1.9638062,0.3193359-4.0715942,3.4376221-3.5299072
		c1.177124,0.2044678,5.1732178-4.3630981,4.9127197-5.6692505c-0.3955078-1.9830933,0.3476563-2.1184082,1.9091797-1.8869629
		C1050.6697998,648.991394,1051.0925293,648.5147095,1051.8372803,648.0646973z"/>
	<path style="fill:#FFFFFF;" d="M1319.9807129,1194.5394287c1.3001709-7.2507324,3.3912354-15.458374,11.088501-20.8106689
		c7.0639648-4.9118652,13.9658203-2.9309082,17.387085,4.9046631c4.0510254,9.2780762,1.7611084,17.1157227-6.7484131,22.692627
		c-2.2087402,1.4475098-4.49646,2.8919678-6.940918,3.8414307
		C1327.4060059,1208.0267334,1320.0155029,1203.286499,1319.9807129,1194.5394287z"/>
	<path style="fill:#FFFFFF;" d="M619.2722168,1086.7362061c-0.008667,7.9117432-3.2634888,10.7215576-8.9522705,11.154541
		c-2.2458496,0.1708984-4.946106-0.2143555-6.8056641-1.3679199c-6.3118286-3.9155273-10.6497803-9.3638916-10.7627563-17.2390137
		c-0.083313-5.8037109,2.9217529-10.395752,7.7058716-12.0916748c4.770874-1.6911621,10.8175049,0.2734375,14.178894,4.7004395
		C617.9647217,1076.2762451,619.3188477,1081.2990723,619.2722168,1086.7362061z"/>
	<path style="fill:#FFFFFF;" d="M519.3734741,1016.6975098c0.1842651-4.2111816,1.512146-7.845459,5.5166016-9.8533936
		c3.9544067-1.9829102,7.4873657-0.7253418,10.8486328,1.7109985c2.996521,2.1719971,5.2087402,4.7565308,6.0629883,8.4990234
		c0.6051025,2.6508179,1.618103,5.2139893,2.5264282,7.7888794c1.4827271,4.2036133-1.2093506,9.6723633-5.6089478,10.017334
		c-3.2406616,0.2539063-7.263916,0.0733643-9.7573242-1.6362305
		C523.3995972,1029.4105225,519.5523071,1023.9693604,519.3734741,1016.6975098z"/>
	<path style="fill:#FFFFFF;" d="M525.618042,1063.9526367c-0.0440063,3.1531982-2.2992554,5.4274902-5.3478394,5.3925781
		c-3.3781128-0.0384521-7.4615479-4.8956299-7.4014282-8.8035889c0.0460205-2.9915771,2.289856-5.2359619,5.2094116-5.2105713
		C521.7108154,1055.3624268,525.6746216,1059.8951416,525.618042,1063.9526367z"/>
	<path style="fill:#FFFFFF;" d="M1418.3569336,1176.6584473c-0.0598145-3.9572754,3.99646-8.8170166,7.3822021-8.8441162
		c2.8575439-0.0229492,5.1884766,2.2869873,5.274292,5.2265625c0.1116943,3.8282471-4.043457,8.675415-7.489502,8.7368164
		C1420.4189453,1181.8331299,1418.4050293,1179.8378906,1418.3569336,1176.6584473z"/>
</g>
<rect x="312.3969727" y="1350.5" style="fill:#FFFFFF;" width="1374.9995117" height="5"/>
<rect x="312.3969727" y="1720.5" style="fill:#FFFFFF;" width="1374.9995117" height="5"/>
<g>
	<g>
		<g>
			<path style="fill:#FFFFFF;" d="M147.3076172,1469.6162109v-9.6005859h33.6005859v13.2001953h-2.3999023L147.3076172,1469.6162109
				z M180.9082031,1607.6191406v13.2001953h-33.6005859v-9.6005859l31.2006836-3.5996094H180.9082031z M170.1079102,1534.4169922
				c0-24.7197266,0-49.6806641-0.7197266-74.4013672h23.0405273c-0.7202148,24.2402344-0.7202148,49.2011719-0.7202148,74.4013672
				v8.4003906c0,28.3212891,0,53.28125,0.7202148,78.0019531h-23.0405273
				c0.7197266-24.2402344,0.7197266-49.2011719,0.7197266-74.4013672V1534.4169922z M180.9082031,1532.2568359h23.7607422
				c29.5205078,0,42.2407227-9.359375,42.2407227-31.4404297c0-22.0800781-12.7202148-29.7607422-37.4404297-29.7607422h-28.5610352
				v-11.0400391h35.5209961c32.8808594,0,52.0810547,16.3203125,52.0810547,39.3613281
				c0,18.7197266-12.9599609,35.2802734-44.8808594,39.1201172v-2.1591797
				c37.440918,3.1191406,52.8012695,19.9199219,52.8012695,40.5605469c0,21.8408203-18.0004883,43.9208984-63.3618164,43.9208984
				h-32.1606445v-11.0400391h26.4008789c31.2006836,0,46.3208008-11.7607422,46.3208008-32.8808594
				c0-22.3203125-14.6401367-33.6005859-48.2412109-33.6005859h-24.4804688V1532.2568359z"/>
			<path style="fill:#FFFFFF;" d="M445.3886719,1540.4179688c0,52.5605469-36.0009766,84.0009766-73.2016602,84.0009766
				s-73.4414063-29.2802734-73.4414063-84.0009766c0-52.5615234,36.4804688-84.0019531,73.4414063-84.0019531
				S445.3886719,1485.6962891,445.3886719,1540.4179688z M372.1870117,1612.4189453
				c33.8408203,0,48.0009766-36.0009766,48.0009766-72.0009766c0-36.0009766-14.1601563-72.0019531-48.0009766-72.0019531
				s-48.2412109,36.0009766-48.2412109,72.0019531C323.9458008,1576.4179688,338.3461914,1612.4189453,372.1870117,1612.4189453z"/>
			<path style="fill:#FFFFFF;" d="M466.5019531,1611.21875l25.2006836-3.5996094h4.800293l27.6005859,3.5996094v9.6005859
				h-57.6015625V1611.21875z M481.6225586,1467.4560547l14.8803711,5.7597656l-28.8007813-3.5996094v-9.6005859h36.0009766
				l99.6020508,137.0429688v25.4404297H595.625L481.6225586,1467.4560547z M486.9023438,1460.015625l12.0004883,9.6005859
				v151.203125h-12.0004883V1460.015625z M566.1044922,1460.015625h57.6010742v9.6005859l-24.0004883,3.5996094h-4.800293
				l-28.800293-3.5996094V1460.015625z M591.3051758,1460.015625h12v162.4833984l-12-12V1460.015625z"/>
			<path style="fill:#FFFFFF;" d="M692.3398438,1460.015625c-0.7202148,24.2402344-0.7202148,49.2011719-0.7202148,74.4013672
				v38.1611328c0,26.8808594-0.4799805,39.1210938-2.8798828,51.3613281
				c-4.5600586,24.0009766-24.7207031,35.7607422-44.6411133,35.7607422c-8.8803711,0-18.2402344-2.4003906-20.4003906-11.5205078
				c1.4399414-8.6396484,6.9599609-11.5195313,14.4003906-11.5195313c6,0,11.0400391,1.9199219,17.7602539,6.9599609l7.9199219,6
				l-1.9199219,2.6396484L659.9389648,1652.5l-0.4799805-1.9199219
				c9.1201172-6.9599609,12.2402344-15.8408203,12.2402344-30.9609375c0-14.4003906-1.2001953-39.3603516-2.3999023-159.6035156
				H692.3398438z M644.8188477,1460.015625h69.6015625v9.6005859l-31.2011719,3.5996094h-4.7998047l-33.6005859-3.5996094
				V1460.015625z"/>
			<path style="fill:#FFFFFF;" d="M880.9790039,1540.4179688c0,52.5605469-36.0014648,84.0009766-73.2021484,84.0009766
				s-73.4414063-29.2802734-73.4414063-84.0009766c0-52.5615234,36.4804688-84.0019531,73.4414063-84.0019531
				S880.9790039,1485.6962891,880.9790039,1540.4179688z M807.7768555,1612.4189453
				c33.8408203,0,48.0009766-36.0009766,48.0009766-72.0009766c0-36.0009766-14.1601563-72.0019531-48.0009766-72.0019531
				s-48.2412109,36.0009766-48.2412109,72.0019531C759.5356445,1576.4179688,773.9360352,1612.4189453,807.7768555,1612.4189453z"/>
			<path style="fill:#FFFFFF;" d="M902.0922852,1469.6162109v-9.6005859h67.2011719v9.6005859l-31.2011719,3.5996094h-4.7998047
				L902.0922852,1469.6162109z M984.1733398,1607.6191406c27.6020508,0,41.5219727-15.6005859,41.5219727-58.5615234v-89.0419922h12
				v95.2822266c0,50.4013672-24.4804688,69.1210938-56.8813477,69.1210938
				c-34.8007813,0-58.3212891-19.4404297-58.3212891-64.0810547v-25.9208984c0-24.7197266,0-49.6806641-0.7207031-74.4013672
				h23.0410156c-0.7197266,24.2402344-0.7197266,49.2011719-0.7197266,74.4013672v18.9609375
				C944.0932617,1594.6591797,959.6928711,1607.6191406,984.1733398,1607.6191406z M1027.375,1473.2158203l-26.4008789-3.5996094
				v-9.6005859h57.6020508v9.6005859l-26.4003906,3.5996094H1027.375z"/>
			<path style="fill:#FFFFFF;" d="M1077.7685547,1469.6162109v-9.6005859h33.6015625v13.2001953h-2.4003906
				L1077.7685547,1469.6162109z M1113.7695313,1607.6191406l31.2011719,3.5996094v9.6005859h-67.2021484v-9.6005859
				l31.2011719-3.5996094H1113.7695313z M1100.5693359,1534.4169922c0-24.7197266,0-49.6806641-0.7197266-74.4013672h23.0400391
				c-0.7197266,24.9609375-0.7197266,48.4814453-0.7197266,76.8017578v7.2001953c0,27.1210938,0,52.0810547,0.7197266,76.8017578
				h-23.0400391c0.7197266-24.2402344,0.7197266-49.2011719,0.7197266-74.4013672V1534.4169922z M1111.3701172,1535.6171875h30
				c25.9208984,0,38.4013672-13.9199219,38.4013672-33.3603516c0-20.1611328-10.8007813-31.2011719-35.7607422-31.2011719
				h-32.640625v-11.0400391h32.8808594c36.7207031,0,58.3212891,15.6005859,58.3212891,42.2412109
				c0,20.4003906-16.0810547,38.8808594-47.5214844,41.5205078l0.7197266-1.9199219
				c17.2802734,1.6796875,27.8408203,9.6005859,34.3212891,31.2011719l11.7597656,39.8408203l-7.4394531-4.5605469
				l24.7197266,2.8798828v9.6005859c-4.3193359,1.4404297-10.0800781,2.4003906-17.2802734,2.4003906
				c-14.8798828,0-21.3603516-3.8408203-24.2402344-14.8808594l-9.8398438-39.1210938
				c-4.8007813-19.4404297-13.6806641-22.7998047-33.6015625-22.7998047h-22.7998047V1535.6171875z"/>
			<path style="fill:#FFFFFF;" d="M1415.2080078,1597.0585938v13.2001953l-14.8808594,3.3603516l6.0009766-35.5205078h14.6396484
				l-0.9599609,34.8007813c-15.1201172,8.1601563-31.6806641,11.5195313-48.4804688,11.5195313
				c-48.4814453,0-81.1220703-35.0400391-81.1220703-84.0009766c0-48.0019531,34.0800781-84.0019531,80.8818359-84.0019531
				c12.9599609,0,30,2.1591797,46.3212891,11.5195313l0.9599609,34.8007813h-14.640625l-6-35.5205078l14.8798828,3.3603516
				v14.6396484c-13.6796875-12.7197266-27.1201172-16.7998047-38.640625-16.7998047
				c-32.4003906,0-58.5615234,25.2001953-58.5615234,72.0019531c0,46.8007813,23.5205078,72.0009766,56.8818359,72.0009766
				C1386.1669922,1612.4189453,1401.5273438,1608.3388672,1415.2080078,1597.0585938z"/>
			<path style="fill:#FFFFFF;" d="M1431.7617188,1611.21875l24-3.5996094h4.8007813l26.4003906,3.5996094v9.6005859h-55.2011719
				V1611.21875z M1503.2832031,1458.8154297h14.4003906l55.2011719,162.0039063h-22.3203125l-48.2412109-143.7636719h5.5205078
				l-48.9619141,143.7636719h-11.2802734L1503.2832031,1458.8154297z M1475.2021484,1557.2177734h64.8017578l3.8398438,11.0400391
				h-72.4814453L1475.2021484,1557.2177734z M1522.4833984,1611.21875l30.2412109-3.5996094h4.7998047l29.7607422,3.5996094
				v9.6005859h-64.8017578V1611.21875z"/>
			<path style="fill:#FFFFFF;" d="M1600.4804688,1469.6162109v-9.6005859h33.6015625v13.2001953h-2.4003906
				L1600.4804688,1469.6162109z M1636.4814453,1607.6191406l31.2011719,3.5996094v9.6005859h-67.2021484v-9.6005859
				l31.2011719-3.5996094H1636.4814453z M1623.28125,1534.4169922c0-24.7197266,0-49.6806641-0.7197266-74.4013672h23.0400391
				c-0.7197266,24.2402344-0.7197266,49.2011719-0.7197266,74.4013672v9.1201172c0,27.6015625,0,52.5615234,0.7197266,77.2822266
				h-23.0400391c0.7197266-24.2402344,0.7197266-49.2011719,0.7197266-74.4013672V1534.4169922z M1700.5634766,1460.015625
				l10.7998047,12h-77.28125v-12h85.6816406l1.6796875,42.7207031h-13.4404297L1700.5634766,1460.015625z
				 M1690.2431641,1544.2578125h-56.1611328v-11.0400391h56.1611328V1544.2578125z M1682.5625,1535.6171875l3.6005859-25.4404297
				h10.7998047v59.28125h-10.7998047l-3.6005859-26.640625V1535.6171875z"/>
			<path style="fill:#FFFFFF;" d="M1739.4384766,1469.6162109v-9.6005859h33.6015625v13.2001953h-2.4003906
				L1739.4384766,1469.6162109z M1773.0400391,1607.6191406v13.2001953h-33.6015625v-9.6005859l31.2011719-3.5996094H1773.0400391z
				 M1762.2392578,1534.4169922c0-24.7197266,0-49.6806641-0.7197266-74.4013672h23.0400391
				c-0.7197266,24.2402344-0.7197266,49.2011719-0.7197266,74.4013672v9.1201172c0,27.6015625,0,52.5615234,0.7197266,77.2822266
				h-23.0400391c0.7197266-24.2402344,0.7197266-49.2011719,0.7197266-74.4013672V1534.4169922z M1839.5214844,1460.015625
				l10.7998047,12h-77.28125v-12h85.6816406l1.6796875,42.7207031h-13.4404297L1839.5214844,1460.015625z M1827.28125,1544.2578125
				h-54.2412109v-11.0400391h54.2412109V1544.2578125z M1865.2021484,1578.0986328l-1.6806641,42.7207031h-90.4814453v-12
				h82.0810547l-10.7998047,12l7.4404297-42.7207031H1865.2021484z M1819.6005859,1535.6171875l3.6005859-25.4404297h10.7998047
				v56.8818359h-10.7998047l-3.6005859-26.640625V1535.6171875z"/>
		</g>
	</g>
	<polygon style="fill:#FFFFFF;" points="1797.0187988,1404.4084473 1779.6192627,1443.2609863 1824.6888428,1403.491333 	"/>
</g>
</svg>
