<?xml version="1.0" encoding="utf-8"?>
<!-- Generator: Adobe Illustrator 24.0.3, SVG Export Plug-In . SVG Version: 6.00 Build 0)  -->
<svg version="1.1" id="Слой_1" xmlns="http://www.w3.org/2000/svg" xmlns:xlink="http://www.w3.org/1999/xlink" x="0px" y="0px"
	 viewBox="0 0 2000 2000" style="enable-background:new 0 0 2000 2000;" xml:space="preserve">
<rect y="-0.0000067" style="display:none;fill:#587267;" width="2000" height="2000"/>
<g>
	<path style="fill:#FFFFFF;" d="M427.7904663,1592.2670898c-1.059845-2.5771484-1.5569458-4.8776855-2.8101501-6.6405029
		c-4.8222046-6.7833252-4.8065491-21.1149902-0.0574646-27.5633545c1.0605774-1.4400635,0.3156128-4.40271,1.4903564-5.5338135
		c6.9283447-6.6708984,14.1478271-13.0422363,21.3586731-19.4130859c0.896637-0.7922363,2.3815308-0.8770752,3.4881287-1.4829102
		c1.7854919-0.9771729,3.5427246-2.0306396,5.2058716-3.2023926c3.8852234-2.7369385,7.4442139-6.0778809,11.6257324-8.2149658
		c4.574646-2.3383789,7.2138062-6.5078125,6.5476074-10.4272461c-0.5490723-3.2302246-4.6280823-6.3479004-7.81604-8.5335693
		c-5.4126587-3.7104492-11.7505188-3.3726807-18.1748352-3.2253418c-6.151123,0.1412354-12.4275208-0.9500732-18.4904175-2.2427979
		c-7.7978821-1.6624756-15.39505-4.2510986-23.1700134-6.0450439c-2.5636597-0.5915527-5.4296875,0.2825928-8.1244202,0.0695801
		c-4.6490784-0.3673096-9.4364014-0.4957275-13.8591919-1.7800293c-4.2359009-1.2301025-8.1568298-3.6676025-12.0728455-5.8336182
		c-2.5570374-1.4143066-4.8571777-3.2929688-7.277771-4.9554443c-0.1287537-0.0883789-0.3280945-0.1776123-0.4608765-0.1416016
		c-8.6347351,2.3326416-11.6115723-6.288208-17.5954895-9.0574951
		c-9.4726562-4.3839111-12.7692871-14.1856689-18.9947815-21.4049072c-3.12146-3.619751-6.2581482-7.4418945-8.3274231-11.6893311
		c-1.8590088-3.8157959-2.5598755-8.2908936-3.2530518-12.5593262c-1.3144531-8.0939941-2.5515747-16.2218018-3.2854309-24.3835449
		c-1.069397-11.8936768,2.3202209-21.9980469,12.7443237-29.0517578c1.6439209-1.1123047,2.4847717-3.411377,4.0421448-5.6604004
		c0.8651123-0.2956543,2.5654297-0.7750244,4.1861267-1.4467773c9.2195435-3.8200684,18.5018005-7.5037842,27.6036072-11.5883789
		c8.8823853-3.9862061,18.2445679-3.4621582,27.5751038-3.899292c2.9077454-0.1363525,5.7345886-1.6557617,8.635498-2.3974609
		c2.1600037-0.5524902,4.6501465-1.7271729,6.5214539-1.1345215c5.4665222,1.730957,9.6525574-1.2027588,11.6256409-4.7574463
		c1.6390686-2.9527588,1.0808411-8.151001-0.3981628-11.5240479c-1.5158997-3.4570312-5.3586731-5.8807373-8.1371155-8.8001709
		c-4.8068542-5.0511475-9.127655-10.685791-14.4771729-15.0687256
		c-6.8528442-5.6147461-10.1886597-13.3150635-13.4150391-20.8569336
		c-2.0487061-4.7891846-1.4637756-10.6992188-2.0991211-16.1020508c-0.1886292-1.604248-0.6514893-3.1843262-0.7464294-4.7897949
		c-0.3985901-6.7453613-1.006073-13.4979248-0.9665833-20.2445068c0.0450745-7.7033691-2.5641785-14.4956055-5.678894-21.31604
		c-2.1190796-4.6398926-3.7827454-9.5212402-5.2610168-14.4121094c-2.0007935-6.6202393-3.7121277-13.3326416-5.3585815-20.0518799
		c-0.4125366-1.6837158-0.6027527-3.7287598-0.027832-5.2880859c1.5097046-4.0948486,3.8284302-7.5014648,3.336792-12.6151123
		c-0.3641357-3.7877197,3.4749756-7.8455811,4.9015808-11.9699707c2.3296509-6.7355957,8.8983459-9.416626,13.0722046-14.3781738
		c8.2823792-9.8457031,19.586731-14.5286865,31.7052917-17.6705322c2.0040588-0.5195312,3.8322754-1.6942139,5.8241577-2.2907715
		c1.679718-0.5029297,3.4729919-0.6557617,5.2271729-0.8731689c2.1899719-0.2713623,4.4421997-0.2297363,6.5762939-0.7202148
		c3.3421326-0.7685547,6.5856323-1.956665,9.9112549-2.8095703c4.9454956-1.2681885,9.9300537-2.3835449,14.8851318-3.6158447
		c0.4267273-0.1062012,0.8236389-0.5487061,1.121582-0.9241943c5.9016724-7.4371338,13.1833496-13.5627441,16.2273865-23.4488525
		c1.9008179-6.1729736,7.2192688-11.5274658,11.7955933-16.5244141c1.7530212-1.9144287,5.6863708-1.9052734,8.6645508-2.6101074
		c8.2839661-1.960083,16.5256958-4.1884766,24.8981934-5.6629639c13.7142334-2.414917,27.5227661-4.2910156,41.2831421-6.4486084
		c6.5394287-1.0253906,13.0797729-3.1832275,19.583374-3.050415c11.9071045,0.243042,23.144043-6.4505615,35.350708-2.8381348
		c2.2762451,0.6733398,5.2194214-1.3571777,7.8646851-1.3919678c6.5316772-0.0860596,13.069519,0.3898926,19.6039429,0.3669434
		c2.3135986-0.0080566,4.7263184-0.5219727,6.914917-1.3049316c4.2788696-1.5303955,8.2225342-2.3917236,12.9675293-0.9141846
		c3.2747803,1.0196533,7.281311-0.3348389,10.9634399-0.5916748c3.6521606-0.2546387,7.3250122-0.3120117,10.9573364-0.7299805
		c4.7977905-0.5515137,9.619873-2.1917725,14.3320923-1.8769531c6.7543335,0.451416,13.4961548-2.7003174,20.2322998,0.1624756
		c0.9690552,0.4118652,2.465332-0.6296387,3.7108765-0.6085205c2.2126465,0.0372314,4.4782104,0.7830811,6.6154175,0.480957
		c2.6878052-0.3804932,5.3219604-1.3825684,7.8673096-2.3970947c0.90448-0.3605957,1.4810181-1.5439453,2.5151978-2.694458
		c4.5344238,5.9094238,10.4911499,2.5788574,15.8572998,3.0817871c6.2971191,0.590332,12.5668335,1.6033936,18.8739014,1.9093018
		c3.8118286,0.1849365,7.6688843-0.8718262,11.5112915-0.9199219c4.0897217-0.0510254,8.1835327,0.5036621,12.2805786,0.6546631
		c3.067688,0.1131592,6.3054199,0.6159668,9.1773071-0.1469727c4.2128296-1.1190186,9.3340454-0.6488037,10.8441162,1.1912842
		c4.6968994-0.9089355,8.7928467-2.2801514,12.9039917-2.3275146c3.779541-0.0437012,7.5755005,1.3376465,11.1671753,2.3626709
		c1.4454956,0.0700684,2.9012451,0.0546875,4.3344727,0.2263184c4.390625,0.526001,8.6422729,2.7120361,13.1863403-0.3153076
		c1.6433716-1.0948486,4.4871826-0.6253662,6.7585449-0.4813232c2.8435059,0.1804199,5.6613159,0.7637939,8.4918823,1.1611328
		c0.149231,0.0209961,0.3424683-0.1462402,0.4680176-0.0993652c9.2774048,3.4677734,18.8858643-0.4884033,27.8649902,0.8162842
		c9.6981812,1.4091797,20.1585083-0.9335938,29.2756348,4.576416c1.1898804,0.7192383,3.534668,0.7358398,4.729248,0.0325928
		c5.6084595-3.3013916,10.9996948-0.4925537,16.4811401,0.072998c3.9262085,0.4047852,7.8703613,0.6450195,11.8099976,0.9073486
		c9.0735474,0.604126,18.1450806,1.2561035,27.2259521,1.7174072c3.0296631,0.1536865,6.116394-0.5447998,9.1228638-0.267334
		c5.0952148,0.4708252,10.1502686,1.3883057,15.2167969,2.1535645c6.7157593,1.0144043,13.3608398,2.1445312,20.2645264,1.8172607
		c4.979248-0.2363281,10.0386963,0.8431396,15.0378418,1.5167236c3.9589844,0.5332031,7.90979,2.0186768,11.8115234,1.8516846
		c4.6618652-0.1993408,8.7770996,0.2030029,12.4493408,3.2363281c0.3555908,0.2938232,1.166626,0.2070312,1.7124023,0.0743408
		c6.5109863-1.5817871,12.9611816-1.980835,19.3498535,0.6175537c1.03479,0.4208984,2.27771,0.7835693,3.3370361,0.6170654
		c6.3214111-0.9949951,12.4555664,2.3394775,18.354126,1.6563721c12.1300049-1.4049072,22.9663086,6.0534668,35.0024414,4.0115967
		c1.3339844-0.2263184,2.881958,1.1518555,4.3945312,1.5296631c1.2789307,0.3195801,2.6547852,0.3902588,3.9799805,0.345459
		c1.3845215-0.0469971,3.2175293-1.0307617,4.0627441-0.4509277c4.5701904,3.1334229,9.8502197,2.8601074,14.8399658,4.0783691
		c5.5419922,1.3532715,10.8250732,0.6870117,16.2053223,1.1173096c4.7409668,0.3792725,10.130249-0.1071777,12.6029053,4.8482666
		c4.4624023,0.3209229,8.5240479,0.6625977,12.5925293,0.8852539c2.192749,0.1201172,4.4025879-0.0618896,6.5930176,0.0772705
		c1.4754639,0.09375,2.9534912,0.425415,4.3858643,0.8143311c0.9088135,0.2467041,1.6990967,1.0245361,2.6057129,1.1695557
		c6.876709,1.0993652,13.8634033,1.6990967,20.6184082,3.2922363c3.7337646,0.8807373,7.005249,3.5686035,10.630249,5.0983887
		c6.2409668,2.6335449,12.4815674,5.621582,19.5649414,2.6395264c1.0200195-0.4295654,2.4885254-0.1759033,3.6367188,0.1534424
		c3.4733887,0.9969482,6.894165,2.1783447,10.3300781,3.3039551c2.0511475,0.6722412,4.3757324,0.9642334,6.085083,2.1417236
		c4.8706055,3.3555908,11.0784912,1.2680664,16.2677002,5.2790527c4.8442383,3.7442627,11.9133301,4.567749,17.9425049,6.8380127
		c2.9628906,1.1157227,5.8148193,2.5415039,8.6715088,3.921875c6.5592041,3.1700439,13.0906982,6.3970947,19.6323242,9.6032715
		c0.9908447,0.4855957,1.9840088,0.9677734,2.9625244,1.4771729c6.1378174,3.1962891,12.2650146,6.4122314,18.4112549,9.592041
		c1.6435547,0.8504639,3.3358154,1.6081543,5.0159912,2.3859863c0.5495605,0.2543945,1.4654541,0.2828369,1.6488037,0.6773682
		c2.1656494,4.6568604,4.3796387,9.3023682,6.2574463,14.0782471c1.291626,3.2851562,1.8833008,6.8425293,3.1279297,10.1501465
		c3.1546631,8.3837891-0.3989258,16.534668-0.7506104,24.7810059c-0.1702881,3.9968262-1.2821045,8.0385742-2.5250244,11.8795166
		c-1.1508789,3.5567627,0.2016602,4.5539551,3.3709717,5.2905273c13.4396973,3.1235352,26.8514404,6.3734131,40.229248,9.7528076
		c3.2042236,0.8094482,6.1590576,1.9888916,9.017334,4.2441406c2.7114258,2.138916,7.0882568,2.1159668,10.6848145,3.2017822
		c2.6260986,0.7928467,5.1749268,1.8419189,8.9158936,3.1960449c1.5311279,1.3128662,4.3261719,3.5561523,6.9453125,5.9888916
		c4.5703125,4.2446289,9.121582,8.5168457,13.5115967,12.9453125c3.7445068,3.7773438,7.3162842,7.732666,10.8293457,11.7283936
		c1.3464355,1.5313721,2.6311035,3.2641602,3.394043,5.130127c1.5106201,3.6937256,2.3464355,7.6766357,3.993042,11.2982178
		c2.4345703,5.3551025,4.534668,10.5927734,4.0083008,16.7282715c-0.2182617,2.5435791,1.4372559,5.1907959,1.6984863,7.8441162
		c0.6188965,6.2841797,0.9404297,12.5983887,1.3151855,18.9046631c0.0739746,1.2410889-0.4969482,2.592041-0.1905518,3.7370605
		c4.0787354,15.2288818-1.8514404,26.1026611-13.1154785,36.4066162
		c-9.4494629,8.644043-20.2452393,14.2247314-31.6169434,18.6688232
		c-9.9224854,3.8773193-20.6011963,6.7235107-31.1695557,7.7769775c-9.645874,0.9614258-19.3875732,1.1571045-27.9818115,5.6546631
		c-4.9830322,2.6077881-8.8051758,7.4450684-13.1143799,11.3183594c-0.7047119,0.6331787-1.0739746,1.7697754-1.8555908,2.1663818
		c-5.4428711,2.7619629-10.7436523,6.0651855-16.5059814,7.8577881c-5.0285645,1.5640869-10.637085,1.1640625-15.9212646,2.0415039
		c-3.4560547,0.5738525-6.9779053,1.473877-10.1427002,2.9364014c-7.3684082,3.4052734-14.6080322,7.1130371-21.7132568,11.0361328
		c-1.0515137,0.5806885-1.9614258,3.4139404-1.4468994,4.4968262c2.5096436,5.2801514,5.4598389,10.3586426,8.4328613,15.4029541
		c0.4473877,0.758667,1.8348389,1.3459473,2.7962646,1.3590088c8.8179932,0.1209717,17.805542,1.1348877,26.3985596-0.2507324
		c5.6807861-0.9161377,10.6340332-0.6520996,15.8562012,0.8978271c0.6157227,0.1826172,1.2816162,0.3487549,1.9107666,0.3092041
		c9.1680908-0.5749512,18.3289795-1.5466309,27.5015869-1.6688232c6.6906738-0.0889893,13.3919678,1.0001221,20.0970459,1.427124
		c3.5987549,0.2293701,7.2678223-0.1837158,10.8101807,0.3381348c3.7613525,0.5540771,8.3359375,0.8197021,10.9078369,3.0834961
		c4.8022461,4.2263184,11.0942383,4.9172363,16.166748,9.1051025c8.3096924,6.8597412,11.5993652,16.2442627,16.7686768,24.6757812
		c2.371582,3.868042,3.6876221,8.4941406,4.8411865,12.942749c0.4525146,1.7437744-1.53125,4.0472412-1.2443848,5.9177246
		c2.0251465,13.1994629-4.2099609,23.9472656-10.0355225,34.7893066
		c-2.9432373,5.4775391-5.7246094,11.2355957-9.6954346,15.9208984
		c-5.3905029,6.3596191-9.7315674,13.9289551-17.5588379,17.9266357c-0.9438477,0.4818115-2.6411133,1.0106201-3.1618652,0.5606689
		c-4.387207-3.7910156-8.5524902-0.8039551-12.3370361,0.6699219c-7.1459961,2.7830811-13.8546143,2.0847168-21.1474609,0.4544678
		c-5.7731934-1.2906494-12.0889893,0.0887451-18.1029053-0.4267578c-9.4532471-0.8101807-19.2335205,2.0025635-28.3886719-2.5092773
		c-0.9755859-0.4807129-2.442749-0.03479-3.6707764,0.0894775c-1.0928955,0.1107178-2.3579102,0.8416748-3.2266846,0.4956055
		c-13.1540527-5.2408447-26.9472656-2.223877-40.4116211-3.3182373c-4.8762207-0.3963623-9.6842041-1.5893555-14.5570068-2.0994873
		c-1.5220947-0.1593018-3.1407471,1.0175781-4.7369385,1.0876465c-9.4815674,0.4180908-18.9875488,1.197998-28.4500732,0.8618164
		c-8.5308838-0.3032227-17.0140381-1.9057617-25.5251465-2.8730469c-1.2630615-0.1436768-2.5656738,0.1029053-3.848877,0.086792
		c-7.4501953-0.0926514-14.9399414,0.2266846-22.3375244-0.4528809c-6.2653809-0.5756836-12.4224854-2.3240967-18.6313477-3.5338135
		c-0.934082-0.1821289-2.1469727-0.6959229-2.7939453-0.3146973c-5.4232178,3.1940918-10.4729004,2.0078125-16.0616455-0.0183105
		c-3.1053467-1.1254883-7.1014404,0.3045654-10.701416,0.4300537c-10.0216064,0.3494873-20.0443115,0.7788086-30.0695801,0.8673096
		c-7.4294434,0.0655518-14.8624268-0.387085-22.2952881-0.5474854c-12.1972656-0.2631836-24.3972168-0.4232178-36.5908203-0.7946777
		c-1.208252-0.0368652-2.3812256-1.2368164-2.2912598-1.1871338c-5.8034668,0.6304932-10.494751,1.5168457-15.1939697,1.5611572
		c-6.8747559,0.0646973-13.75354-0.6431885-20.6337891-0.7163086c-10.6982422-0.1140137-21.3989258,0.0474854-32.0987549,0.0557861
		c-6.2518311,0.0046387-12.5059204-0.178833-18.7550049-0.0617676c-5.9527588,0.1115723-11.8510742,0.793335-17.6323853-1.7553711
		c-1.5495605-0.6831055-3.9550781,0.6088867-5.9745483,0.9526367c-5.972168,1.0163574-11.9373779,2.0808105-17.9268799,2.9831543
		c-2.5006104,0.3765869-5.0532227,0.4796143-7.5864258,0.5489502c-3.1029663,0.0848389-6.3048096,0.4876709-9.2985229-0.095459
		c-9.5667725-1.8632812-19.0896606,3.1400146-28.6303711-0.0366211c-1.1286011-0.3756104-2.7807617-0.5915527-3.6741943-0.0422363
		c-8.7872314,5.4024658-19.2614746,4.4776611-28.6386719,7.7723389c-5.4174805,1.9033203-10.432312,10.6580811-6.6958008,14.7390137
		c3.1732178,3.4660645,6.4361572,7.6917725,12.3927612,7.3217773c4.9553833-0.3077393,9.7598267-0.1069336,14.6882935,2.1784668
		c3.484436,1.6158447,8.2289429,0.3536377,12.3770142,0.739502c5.2300415,0.4866943,10.4094238,1.5737305,15.6430054,1.9415283
		c2.6048584,0.1829834,5.2944336-1.0214844,7.9224854-0.9302979c2.2796021,0.0792236,4.4951172,1.3088379,6.7955322,1.6561279
		c3.5913696,0.5418701,7.3389282,1.5012207,10.8283691,0.9857178c9.3959351-1.3880615,18.4064331,4.1837158,27.9044189,0.9165039
		c6.8522949-2.3570557,13.6856079,0.4825439,20.493042,1.3483887c5.6365967,0.7166748,11.2427979,1.6789551,16.8543091,2.5828857
		c1.6832275,0.2711182,3.3282471,0.9110107,5.0115967,1.0046387c1.1265869,0.0623779,2.317627-0.8699951,3.4309082-0.7764893
		c2.208374,0.1856689,4.3830566,0.772583,7.1912842,1.3129883c1.0854492-0.2686768,3.0908203-1.1706543,5.0993652-1.1776123
		c4.0527344-0.0140381,8.8947754-0.8067627,11.9390869,1.0875244c3.027832,1.8841553,5.7926025,2.4423828,8.9616699,2.9344482
		c1.5655518,0.2432861,3.0506592,1.0030518,5.4545898,1.8338623c3.6766357-1.746582,7.97229-3.0616455,13.4857178-0.1064453
		c2.7402344,1.4686279,7.6507568-0.9560547,11.5279541-1.8441162c1.4578857-0.3339844,2.8093262-1.9504395,4.142334-1.8702393
		c5.7459717,0.3453369,11.4553223,1.2824707,17.2005615,1.6555176c4.7186279,0.3060303,9.4689941,0.1463623,14.2052002,0.1478271
		c12.0308838,0.0040283,24.0618896-0.0257568,36.0927734-0.0266113
		c48.4908447-0.0031738,96.9876709,0.4572754,145.4696045-0.1970215
		c23.5489502-0.3178711,47.8358154,14.9868164,53.659668,42.3253174c1.2991943,6.1000977,0.8375244,12.6314697,2.5595703,18.5657959
		c1.2192383,4.201416,0.6589355,7.4780273-0.1594238,11.5025635c-1.0975342,5.3974609-5.3946533,7.4144287-8.621582,10.3879395
		c-2.9835205,2.7495117-7.2734375,4.019043-10.6428223,6.4241943c-7.6671143,5.4729004-16.2077637,8.4134521-25.4822998,8.7420654
		c-16.4519043,0.5831299-32.9197998,0.7154541-49.3791504,1.105957c-1.7591553,0.041748-3.6343994,0.2341309-5.2402344,0.8868408
		c-11.512207,4.6794434-22.8406982,2.3696289-34.5307617,0.3110352c-9.5953369-1.6896973-19.6021729-2.9976807-29.3608398,0.980835
		c-2.0876465,0.8513184-5.1397705-0.8613281-7.774292-1.1157227c-7.9509277-0.7680664-15.902832-1.6783447-23.8764648-2.0236816
		c-14.2729492-0.6187744-28.5690918-0.7105713-42.8416748-1.3365479
		c-6.5975342-0.2896729-13.1506348-1.4920654-19.7468262-1.9390869c-3.3043213-0.223877-6.7578125-0.112793-9.970459,0.6137695
		c-4.9411621,1.1175537-9.848999-0.5107422-12.1293945-5.5380859c-3.071167,1.3182373-6.0830078,3.1226807-9.336792,3.8648682
		c-3.2836914,0.7490234-6.8363037,0.7965088-10.2191162,0.5194092c-5.1193848-0.4188232-10.1832275-1.9125977-15.2893066-2.0155029
		c-12.8977051-0.2600098-25.8406982-0.5358887-38.6933594,0.3016357c-5.6230469,0.366333-11.017395,0.1322021-16.5546265-0.2686768
		c-3.4763794-0.2515869-7.0336914,0.8867188-10.5730591,1.178833c-7.9622192,0.6571045-15.9383545,1.1428223-23.9037476,1.7645264
		c-4.2611084,0.3325195-8.5048218,1.0108643-12.7687988,1.1490479c-3.8964233,0.1262207-7.8112793-0.2354736-11.715332-0.4353027
		c-5.571167-0.28479-11.2376709-1.9155273-16.5032959,1.4985352c-1.0560303,0.6846924-2.3987427,1.3421631-3.5977783,1.3221436
		c-6.5977783-0.1104736-13.2182617-0.9301758-19.7815552-0.5802002
		c-12.5973511,0.6717529-25.1890869,1.7132568-37.7310791,3.0788574
		c-10.5863037,1.1525879-21.1551514,2.671875-31.6316528,4.5791016c-17.5088501,3.1871338-35.1188354,4.4439697-52.892334,5.152832
		c-10.9306641,0.4361572-21.7030029,3.9770508-32.6364746,5.4577637
		c-10.7730103,1.4591064-21.6450806,2.3168945-32.5016479,2.9841309
		c-7.5723267,0.4656982-15.2012329-0.0430908-22.7863159,0.2973633c-3.6078491,0.1622314-7.1469727,1.6380615-10.762085,1.9006348
		c-5.7233276,0.4152832-11.5220947-0.0527344-17.21875,0.5341797c-5.2660522,0.5427246-10.4393311,1.9833984-15.6552734,3.0197754
		c-0.4777222,0.0949707-1.0795288,0.342041-1.4353638,0.1567383c-5.2774658-2.7484131-8.6724243,2.1429443-12.9553833,3.3144531
		c-1.2991333,0.3554688-2.4718628,2.3703613-2.9660645,3.8682861c-0.1917725,0.5809326,1.5019531,2.0952148,2.5990601,2.7332764
		c3.4632568,2.0137939,7.0437622,3.8276367,10.5994263,5.6794434c0.4145508,0.2159424,1.0565796,0.4061279,1.4241943,0.2382812
		c4.284729-1.9569092,5.7855225,1.3426514,8.1151733,4.2175293c2.9692383-3.2412109,6.2452393-1.479248,10.0238647-0.6031494
		c7.3379517,1.7017822,14.9659424,2.1168213,22.4346924,3.3095703c2.5062866,0.4001465,4.8444214,1.7890625,7.3466187,2.2947998
		c4.840271,0.9777832,9.7401733,1.6628418,14.6223755,2.425293c0.4438477,0.0692139,1.0287476-0.050415,1.3945312-0.3037109
		c4.5812988-3.1750488,7.3696899-2.5389404,12.8894043-0.4243164c4.8547363,1.8601074,10.4121094,2.652832,15.6411743,2.5820312
		c7.1553345-0.0964355,14.2786865-1.729126,21.4476318-2.1247559c2.4661255-0.1361084,5.022583,1.4824219,7.5490723,2.2625732
		c0.8850708,0.2730713,2.0437622,0.899292,2.6704712,0.5758057c5.3606567-2.7677002,9.9246826-0.1162109,14.9004517,1.4431152
		c3.1582031,0.9893799,6.9076538,0.1652832,10.3874512,0.0352783c3.519104-0.1313477,7.1762085-1.1055908,10.5064697-0.4187012
		c3.0529785,0.6295166,5.7505493,2.9820557,8.447998,4.487915c4.0210571-1.2269287,8.1871948-3.409668,12.4092407-3.5239258
		c4.020752-0.1086426,8.0612183,2.1341553,12.1700439,2.9591064c1.9575195,0.3928223,4.0951538-0.2053223,6.1489868-0.1785889
		c3.5830688,0.0463867,7.1697388,0.1459961,10.7452393,0.3736572c4.9862061,0.3173828,9.480835,3.4674072,15.0794067,0.9147949
		c3.90979-1.782959,9.1107178-2.6179199,12.0440674,1.5738525c6.088562-0.90979,11.1635132-3.6287842,17.4370117-0.8881836
		c2.6881104,1.1741943,7.4237671,4.8435059,10.5704346-0.6419678c0.2158203-0.3762207,1.2098999-0.4869385,1.8154297-0.4310303
		c6.0668945,0.55896,12.128479,1.1744385,18.1907959,1.7832031c2.5344238,0.2543945,5.0666504,0.5314941,7.8842773,0.4855957
		c1.6794434,0.1811523,3.367981,0.5775146,5.0366821,0.5063477c7.5106201-0.3199463,15.0217285-1.1513672,22.5199585-1.0269775
		c4.1123047,0.0679932,8.2628174,2.5891113,12.2793579,2.3114014c3.8272705-0.2642822,7.862854,3.3359375,11.6470947-0.4733887
		c0.4890747-0.4926758,2.7333374,0.7580566,4.4102173,1.2773438c0.1369019-1.34729,0.2609253-2.5673828,0.4384155-4.3145752
		c0.949585,0.4025879,1.914917,1.0681152,2.1451416,0.8717041c4.9224854-4.1988525,9.3510132,0.8818359,14.0240479,0.651123
		c0.6976318-0.0344238,1.53125-0.2166748,2.041748-0.6425781c2.3896484-1.9931641,4.3196411-2.0727539,5.4547119,1.3745117
		c3.1277466-3.4133301,6.2540283-3.6817627,10.1799316-2.0256348c2.0083008,0.8469238,4.6624756,0.2712402,7.0169678,0.1669922
		c4.6567383-0.2062988,10.0734863-2.1320801,13.7532959-0.3719482c3.9239502,1.8768311,7.8162842-2.4163818,11.1143799,1.4105225
		c0.6728516,0.7807617,3.4552002-0.1453857,5.2351074-0.4581299c2.0942383-0.3682861,4.6888428-1.9624023,6.1365967-1.2172852
		c5.5881348,2.8754883,11.2531738,0.1119385,16.8692627,0.9040527c5.5682373,0.7851562,11.3881836-0.354126,17.0966797-0.3363037
		c1.5823975,0.0047607,3.1307373,1.5418701,4.74646,1.6588135c6.5195312,0.4720459,13.0600586,0.850708,19.5911865,0.824707
		c1.5952148-0.0063477,3.1187744-2.3056641,4.7866211-2.4788818c8.5067139-0.8833008,17.0123291-2.40979,25.6022949-0.1119385
		c2.0732422,0.5543213,4.5269775-0.3275146,6.8074951-0.5280762c1.4443359-0.1269531,2.9147949-0.4321289,4.3341064-0.2825928
		c4.6953125,0.4945068,9.3887939,1.0537109,14.0531006,1.7791748c12.2028809,1.8983154,24.4127197-0.8469238,36.5878906,0.0946045
		c10.6888428,0.8265381,21.3317871,2.230957,32.0073242,3.2501221c3.1656494,0.302124,6.4506836-0.2576904,9.5454102,0.3132324
		c6.5980225,1.2166748,13.0742188,3.0841064,19.6635742,4.3591309c4.680542,0.9057617,9.5593262,0.890625,14.1690674,2.0224609
		c3.1959229,0.7845459,5.9420166,3.4067383,9.1383057,4.1861572c8.9713135,2.1876221,16.3728027,7.1453857,23.8331299,12.1945801
		c11.6888428,7.9111328,16.508667,19.7196045,18.7844238,32.8748779c0.7957764,4.598999,1.4544678,9.5494385,0.5993652,14.0389404
		c-1.8208008,9.5578613-8.0455322,15.892334-17.3806152,18.671875c-9.9256592,2.954834-19.8685303,6.0310059-30.0048828,8.043335
		c-8.2141113,1.6306152-16.7252197,2.3994141-25.1057129,2.4080811c-12.0098877,0.012207-24.0172119-1.1490479-36.0345459-1.4855957
		c-2.3747559-0.0665283-4.7635498,1.829834-7.1920166,1.9597168c-6.8569336,0.3664551-13.7381592,0.2579346-20.6088867,0.3876953
		c-6.5587158,0.1240234-13.1315918,0.0836182-19.6711426,0.5228271c-11.2332764,0.7550049-22.4316406,2.0749512-33.6704102,2.68396
		c-8.5087891,0.4613037-17.0592041,0.0965576-25.5877686,0.2669678c-5.835083,0.1165771-11.7229004,1.1721191-17.4841309,0.6574707
		c-10.7973633-0.9645996-21.1152344,2.6746826-31.7037354,2.6005859c-9.4627686-0.0664062-18.9664307,3.925293-28.4240723-0.1429443
		c-0.7402344-0.3183594-1.8911133,0.1564941-2.8035889,0.4248047c-9.6057129,2.8233643-19.3873291,3.449707-29.3839111,3.3577881
		c-6.6306763-0.0609131-13.2753296,1.5283203-19.916748,2.3547363c-1.1234741,0.1394043-2.2789307,0.3165283-3.3911743,0.2016602
		c-4.5431519-0.4692383-9.0831909-1.5345459-13.6091309-1.4591064c-5.8649292,0.0976562-11.708374,1.1536865-17.5739746,1.6447754
		c-4.0871582,0.3424072-8.2166748,0.7570801-12.2862549,0.4971924c-2.1657104-0.1381836-4.2443237-1.6416016-6.3622437-2.5286865
		c0.163147-0.4036865,0.3262329-0.807251,0.4893188-1.2106934c-9.5245972,0.7324219-19.0458984,1.5189209-28.5776978,2.1427002
		c-1.5583496,0.1019287-3.1536255-0.6038818-4.7490234-0.7801514c-4.1065063-0.4534912-8.2428589-0.6773682-12.3305664-1.2529297
		c-6.5123291-0.9171143-13.0441895-1.8106689-19.4741211-3.1599121c-4.9083252-1.0301514-9.3709106-4.0930176-14.859314-1.9361572
		c-1.6819458,0.6611328-4.1221924-0.3223877-6.1361694-0.8525391c-3.9309692-1.0345459-7.7389526-2.8410645-11.7190552-3.3199463
		c-7.7020874-0.9268799-15.6403809-2.3304443-23.1981201-1.3521729c-8.0556641,1.0424805-15.0591431-1.4632568-22.5698853-2.6149902
		c-8.8123779-1.3519287-17.7385254-2.4375-26.9205933-1.1856689c-9.1818237,1.2518311-18.6743164,0.1088867-27.9108887,1.1149902
		c-5.8787842,0.6405029-10.8775635-0.8271484-16.3575439-2.1091309c-4.9971313-1.1689453-11.1647949-1.1047363-15.8490601,0.7982178
		c-22.7531128,9.2416992-44.9744263,19.7805176-69.6116943,23.5632324
		c-8.5452271,1.3122559-16.8060913,4.5925293-25.3613892,5.6866455c-7.2191772,0.9237061-14.678772,0.0585938-22.027832-0.1560059
		c-4.762207-0.1390381-9.5602417-1.9527588-14.1467896,1.258667c-1.0526733,0.7370605-3.1260376,0.0493164-4.7269897-0.0352783
		c-5.5414429-0.293335-11.1538696-0.1599121-16.604126-1.0327148c-6.6565552-1.0657959-13.6710205,0.2243652-20.0084229-3.3640137
		c-2.4385986-1.3807373-5.5385132-1.7720947-8.3990479-2.1959229c-9.4529419-1.4001465-17.479248-5.184082-23.4387207-12.9313965
		c-1.3103027-1.7038574-4.3390503-2.8200684-4.5535278-4.4698486c-0.372406-2.8632812-0.1499634-6.8338623,1.5841675-8.7247314
		c3.5111084-3.8284912,7.7727661-8.2166748,12.4882812-9.4454346c11.5783691-3.0175781,23.5188599-5.2208252,35.4418945-6.2137451
		c21.1019897-1.7575684,41.8764648,1.0322266,62.3826294,6.5189209c10.65625,2.8513184,21.6054077,5.479126,32.5439453,6.1153564
		c8.017395,0.4664307,16.3577271-1.991333,24.3182983-4.055542c5.7700806-1.4962158,11.1713867-4.4412842,16.7030029-6.8195801
		c3.3458252-1.4383545,5.7189331-3.3511963,5.8980103-7.6687012c0.1988525-4.7904053-2.7781982-9.1455078-7.7585449-9.4866943
		c-3.1400757-0.2148438-6.3373413,0.1586914-9.4449463-0.236084c-9.2957153-1.1802979-18.5487671-2.6918945-27.8390503-3.9190674
		c-11.2462769-1.4852295-22.545105-2.6048584-33.7576904-4.3015137c-5.0422974-0.7629395-9.9029541-2.6641846-14.9009399-3.8094482
		c-2.6363525-0.604126-5.3830566-0.7976074-8.0932007-0.9949951c-6.7698975-0.493042-13.7067261-0.119751-20.2842407-1.4937744
		c-9.6738892-2.020752-19.0308228-5.5108643-28.640564-7.9017334c-8.2070312-2.0415039-16.5674438-3.484375-24.8912964-5.0228271
		c-1.477356-0.2730713-3.1080322,0.2841797-5.0315552,0.4984131c-0.0808716-1.5892334-0.1484985-2.9163818-0.2379761-4.6750488
		c-5.6343994,2.862915-10.8084106,1.0837402-16.0890503-0.6472168c-2.9076233-0.9530029-6.0657349-1.1103516-9.0627441-1.828125
		c-9.3886414-2.2480469-18.8197021-4.3632812-28.0968933-7.0112305c-3.7234802-1.0627441-7.0658264-3.4277344-10.6234741-5.1115723
		c-7.4850769-3.5428467-15.0550537-6.9107666-22.4814453-10.5709229
		c-6.0577393-2.9859619-12.3703003-5.7192383-17.8033142-9.6295166c-4.8055115-3.4586182-8.7493286-8.2159424-12.6911926-12.7335205
		c-2.1730347-2.4902344-3.5467224-5.6750488-5.3022766-8.5335693c-3.2115479-5.2293701-4.1964111-10.8896484-2.2862549-16.6785889
		c0.7445374-2.2568359,3.4938965-3.8537598,4.2342224-6.1105957c1.262146-3.8482666,4.0720825-2.1037598,6.3630981-2.6303711
		c6.7529297-1.5524902,13.4560852-3.3258057,20.1633301-5.0714111c20.8027649-5.4139404,42.0679626-6.1821289,63.4005737-6.541748
		c20.5253601-0.3460693,41.047699-0.9140625,61.5679626-1.5013428c26.0101929-0.7442627,52.019104-1.5462646,78.0234375-2.4698486
		c5.1799927-0.18396,10.335144-1.0427246,15.5043335-1.5655518c4.5162354-0.4569092,9.0272827-1.0462646,13.5559692-1.2851562
		c13.8058472-0.7282715,27.6256714-1.2025146,41.4267578-2.0056152c6.8030396-0.3959961,13.6032715-2.0650635,20.3587036-1.8306885
		c21.9280396,0.7608643,43.3979492-1.8719482,64.887207-6.0540771c9.1455688-1.7797852,18.8493042-0.8765869,28.2991943-0.8693848
		c19.1028442,0.0142822,37.2349243-5.8022461,55.743103-9.2757568c2.2915039-0.4298096,3.9628296-4.1633301,5.9216309-6.3659668
		c-2.8997192-1.4796143-2.1258545-6.2971191-8.0598145-5.9117432c-7.4963989,0.4871826-15.244812-2.4180908-22.840332-4.0639648
		c-9.9188232-2.149292-19.7507324-4.7237549-29.7102051-6.6491699c-3.8793945-0.7501221-8.4682007,0.9003906-11.9246826-0.5167236
		c-8.5802612-3.5172119-17.5726929-0.5516357-26.2402954-2.8834229c-6.2659302-1.6861572-13.1130981-1.128418-19.668457-1.8619385
		c-2.8492432-0.3187256-5.6177979-1.3624268-8.4207153-2.0860596c-0.774353-0.2000732-1.527832-0.5455322-2.3121948-0.6331787
		c-11.6437988-1.2994385-23.2841797-2.637085-34.9416504-3.802002c-3.8674927-0.3863525-7.7931519-0.1697998-11.6692505-0.4986572
		c-2.1558228-0.1829834-4.2664795-0.9125977-6.3930054-1.4151611c-0.6052856-0.1430664-1.2530518-0.614502-1.7821045-0.4951172
		c-9.8800659,2.2271729-19.1290283-1.6062012-28.6729126-2.5737305c-9.6348267-0.9766846-19.1015625-5.5773926-29.0841675-2.383667
		c-0.4458618,0.1425781-1.1395874,0.2529297-1.4331055,0.0197754c-7.1074219-5.6431885-16.0805664-0.9211426-23.6721802-4.2667236
		c-2.0455322-0.9013672-4.7749023-0.1212158-7.1503296-0.4257812c-13.3223877-1.7073975-26.6281738-3.5440674-39.9486084-5.2678223
		c-7.1661987-0.9274902-14.3529053-1.6955566-21.524292-2.5843506c-1.9207764-0.2380371-3.8660278-0.491333-5.7192383-1.0202637
		c-5.2414551-1.4960938-10.3717041-2.2498779-15.9696655-1.4967041c-4.1452637,0.5579834-8.5457458-1.0313721-12.8555298-1.3843994
		c-5.7619629-0.4720459-11.5471802-0.9432373-17.3208313-0.9245605c-7.6433716,0.0247803-14.8287048-1.2021484-21.2866211-5.5537109
		c-0.924469-0.6230469-2.0413513-1.1876221-3.1237793-1.3146973c-13.7141418-1.6141357-20.9308777-12.25-29.4839172-21.0610352
		C433.515686,1597.6418457,430.4763794,1594.8613281,427.7904663,1592.2670898z"/>
	<path style="fill:#FFFFFF;" d="M813.1721191,730.1711426c0.644165,0.0618896,1.3670654,0.3461914,1.9200439,0.1503296
		c4.3445435-1.5386963,7.7756348,0.40802,11.2741089,2.6071167c1.4425049,0.9067383,3.2626343,1.2098389,4.9069824,1.7987061
		c1.7952271,0.6430054,3.5858765,1.2988892,5.1964111,2.6674194c4.0110474-1.3691406,7.3661499-0.7559814,11.1438599,2.4334106
		c2.5614624,2.1625366,6.7096558,2.4191284,10.1181641,3.6136475c2.4890747,0.8722534,5.0380249,1.6743774,7.3650513,2.883667
		c3.2871704,1.708313,6.2969971,3.80896,10.3927002,2.8922729c1.192688-0.2668457,2.78125,0.5343018,3.9971924,1.1967163
		c4.7666626,2.5968628,9.4077759,5.4277954,14.218811,7.9351196c0.9041748,0.4712524,2.3737793-0.1420898,4.0666504-0.3001709
		c-1.348938,6.1773071,2.1314087,5.395874,5.8118286,4.5026855c1.7451782-0.4234619,12.1349487,6.9102173,13.0662231,8.3570557
		c0.7106323,1.1040649,2.6918335,2.4020386,3.6937866,2.1237183c3.468811-0.9638672,5.5297852-0.3156128,8.4418945,2.3085327
		c4.9263916,4.4391479,11.071228,7.5150146,16.6400757,11.2587891c1.8646851,1.253479,3.5310669,2.8013306,5.295105,4.2057495
		c2.2139893,1.7625732,5.861145,1.7838135,6.5114746,5.4728394c0.1627197,0.9229736,0.5466919,1.9089966,1.1210938,2.6351929
		c1.0477905,1.324707,2.4553833,3.6342773,3.4658203,3.5108643c6.1275024-0.748291,8.3453979,3.8572998,11.1207886,7.5859375
		c2.0148926,2.7069092,3.6566772,5.7052002,5.3023071,8.6638184c0.4170532,0.7498169,0.5984497,2.0493774,0.2282104,2.7451782
		c-1.5192261,2.8552856-0.1404419,4.312561,2.0602417,5.9489136c5.6633911,4.2110596,6.878418,12.2415771,4.1190186,19.0634766
		c-1.185791,2.9318237,0.0374756,6.7514648-0.6730957,9.9830933c-0.9608154,4.3700562-2.5391235,8.642334-4.272583,12.7804565
		c-0.4946899,1.1810913-2.4451904,1.7523193-3.710144,2.5913696c1.2872314,7.8948364-4.3221436,12.9536743-7.7056885,18.9313965
		c-0.6848755,1.210144-1.1789551,2.5455322-1.6241455,3.8693237c-0.5070801,1.5078125-0.487793,4.1248169-1.3436279,4.4266968
		c-4.3999634,1.5517578-3.8708496,5.4827881-5.0487671,8.7060547c-1.4472656,3.9606934-3.3884277,7.3417969-8.1283569,8.8892822
		c-2.1799927,0.711731-3.4338379,4.2600098-3.9238892,6.7590332c-0.2095337,2.6500854-0.1317139,5.3632202-0.6951904,7.9359131
		c-0.8695679,3.9703979-2.1827393,7.8434448-3.2996826,11.7600708c-4.680542,16.414978-17.5386963,26.0211182-30.4007568,35.1644897
		c-7.2042236,5.1212158-15.5032959,9.0762939-23.8269653,12.1577759
		c-11.2120361,4.1506958-17.8733521-1.953125-16.2024536-13.8417969
		c1.2236938-8.7062378,7.1102295-14.2503052,13.8745117-18.6709595c8.7094116-5.6918335,18.2658691-10.1425781,26.6912842-16.194519
		c5.8046265-4.1695557,10.1813965-10.2845459,15.4528198-15.2580566c2.374939-2.2407837,5.1762695-4.2855225,8.1525269-5.5558472
		c2.5889893-1.1051025,4.4969482-1.803833,4.901062-5.1000977c0.2182007-1.7792969,2.6233521-3.1998901,3.1882935-5.0438232
		c1.8659058-6.0908813,3.3518677-12.2987671,4.9594727-18.4679565c0.2311401-0.8872681,0.2526855-1.8310547,0.5028687-2.7111816
		c1.131897-3.9820557,2.5558472-7.522522-0.2472534-11.9223633c-1.8582764-2.9168701-0.4887085-7.7236938-1.8988037-11.1324463
		c-2.0339966-4.9168091-5.1096802-9.4432373-8.0453491-13.937439c-4.8493652-7.4238281-12.7497559-11.2056274-19.7600098-16.0460815
		c-3.4838867-2.4055786-6.7474976-5.1347656-10.272644-7.4732666c-1.2774658-0.8474731-3.0755005-0.8641357-4.5511475-1.4673462
		c-3.9803467-1.6264648-7.9613647-2.8641357-10.9581909-6.6526489c-1.6741333-2.1165161-5.4970093-2.6179199-8.4257202-3.6333618
		c-2.8265381-0.9801025-5.8824463-0.2061768-7.9819946-4.1477661c-1.1055298-2.0756226-6.7084961-1.4155884-9.9503174-2.7774048
		c-4.2896118-1.802063-8.258606-4.3688965-12.3554077-6.6252441c-0.4055786-0.2233887-0.7224731-0.7990112-1.1123657-0.831604
		c-7.6356812-0.6392212-13.0405884-7.2681885-21.583313-6.906189c-5.0405273,0.213562-10.1793823-4.8751831-15.4862671-7.0647583
		c-4.6818848-1.9317627-9.6792603-3.0877075-14.4960938-4.7084351c-2.5529785-0.8589478-5.0632324-1.8800049-7.5109253-3.0057373
		c-2.6635742-1.2247925-4.7376709-4.2839966-8.3271484-2.4408569c-0.335144,0.1721802-0.9790649-0.0534668-1.3912964-0.2660522
		c-5.0437012-2.5995483-10.0323486-5.3093872-15.117981-7.8232422c-2.7467041-1.3578491-5.6535645-2.390686-8.4851685-3.5776367
		c-5.0401001-2.1124268-9.9766846-4.5313721-15.1429443-6.2678833c-6.0328979-2.0278931-12.3477173-3.2148438-18.3863525-5.2281494
		c-5.3324585-1.77771-10.4606934-4.1724854-15.6657104-6.3270264c-4.4487305-1.8416138-8.9346924-3.6072388-13.3009644-5.6293335
		c-4.4685669-2.0697021-8.7601318-4.520874-13.2255859-6.5979004c-3.7095947-1.7255249-7.6188965-3.020874-11.3338623-4.7362061
		c-7.1514282-3.302002-14.5019531-6.3070068-21.2382202-10.3262329c-4.4246216-2.6401978-9.321167-5.0270386-12.2649536-9.894104
		c-1.2229614-2.0219116-3.5554199-3.6536255-5.7385254-4.7650757c-9.4007568-4.7857666-16.8300781-12.1693726-22.2759399-20.6184082
		c-3.6165161-5.6110229-8.7678833-11.7366333-6.8357544-20.0787354c0.6735229-2.9081421-1.7369995-6.4085083-1.96698-9.6925659
		c-0.1437988-2.0545654,0.9384155-4.3082886,1.8485718-6.2998047c1.9188843-4.1990967,5.2150269-7.6331787,4.0661011-13.1745605
		c-0.4924927-2.3758545,1.8265381-5.8945312,3.7617188-8.1152344c7.6777344-8.8103638,14.0843506-18.852356,24.1189575-25.4638062
		c1.1062622-0.7288818,1.6136475-2.3400879,2.4579468-3.4989624c1.4547729-1.996521,2.5215454-3.4740601,5.8103027-3.9760132
		c4.0823975-0.6230469,7.6890869-4.2741699,11.5383911-6.5545044c1.6036987-0.9499512,3.3529663-1.6557007,4.9466553-2.6199951
		c2.15625-1.3045654,4.2520752-2.7142944,6.3227539-4.1525269c1.0413208-0.7232666,1.8568115-1.8378906,2.9667358-2.3859863
		c11.5610352-5.7103882,23.1279907-11.4111938,34.7627563-16.9690552
		c7.2907104-3.4827271,15.206543-5.9373169,21.9091797-10.2894897c6.3114624-4.0983887,13.0759888-6.3696289,19.9169922-8.9381714
		c4.7028809-1.7658691,8.9885864-4.6124268,13.6046143-6.6503906c3.2390137-1.4299927,6.7574463-2.2128296,10.0830078-3.4655151
		c3.4456787-1.2977905,6.8031616-2.8284302,10.2099609-4.230896c7.6503906-3.149292,15.3068848-6.2839966,22.9644775-9.4161377
		c0.2983398-0.1221313,0.7922974-0.0498657,0.9267578-0.2490845c5.9327393-8.7921753,17.9863892-3.671875,24.7394409-10.8313599
		c0.8187256-0.8679199,3.2739868,0.0491943,4.7377319-0.4916382c8.6834106-3.2086487,17.3197021-6.5486755,25.9294434-9.9519043
		c7.4389648-2.9404907,14.7837524-6.1208801,22.2399902-9.0154724c6.8635254-2.6645508,13.8275757-5.0694885,20.7282715-7.6400146
		c1.1784058-0.4390869,2.3172607-1.0480347,3.3776245-1.7291565c4.0380859-2.5935364,5.5367432-2.6912537,8.6430664-1.0991211
		c5.0252075-2.2099609,9.2272949-4.0946655,13.4592285-5.909668c5.2093506-2.2342224,10.4133911-4.4869385,15.68396-6.5690613
		c1.777832-0.7023315,3.7315674-1.117218,5.6397095-1.2999573c4.6454468-0.4447937,8.8140259-1.5863037,11.668396-5.7348022
		c0.5266113-0.7653198,2.0478516-1.5174561,2.8580933-1.3067627c4.9120483,1.2777405,8.3693237-2.0829163,12.055603-3.9570007
		c4.4200439-2.2470093,8.1488037-5.1095581,13.6263428-5.5705261c3.6882935-0.3104248,7.034668-4.083374,10.6376343-6.1239624
		c9.9648438-5.6433716,20.1687012-10.8933411,29.8848877-16.931366c3.5748291-2.2214661,6.060791-6.2030945,9.0184326-9.4051208
		c1.2116699-1.3118591,2.536499-2.5699463,3.4901123-4.0574036c1.387085-2.1637573,3.0731201-4.3883362,3.5859375-6.8085632
		c1.125-5.3094788,3.9101562-9.6094666,7.0618896-13.7743835c1.3082275-1.7289734,2.902832-2.629303,1.3637695-5.6836853
		c-1.47229-2.9216919-0.5140381-6.9749146-1.1540527-10.4326782c-0.7984619-4.3146362-2.8215332-8.4842834-3.1038818-12.795929
		c-0.5841064-8.9159546-7.7628174-13.434845-12.1617432-19.7830811c-1.2340088-1.7808838-3.255249-3.0069275-4.8721924-4.5332642
		c-7.9439697-7.4986572-14.7842407-16.170929-25.2304077-20.8510742
		c-5.8701782-2.6299133-11.1432495-6.6486511-16.5346069-10.2663574c-2.6139526-1.7540283-4.6090698-4.565979-7.3615723-5.9495239
		c-5.7441406-2.8873596-11.7234497-5.364502-17.7557373-7.6074524c-8.848999-3.2900391-16.237915-8.4896851-23.1202393-14.9358521
		c-3.5960693-3.368103-8.7474365-5.0765381-13.1992188-7.5297241c-4.8550415-2.6755676-9.814209-5.1799316-14.5427856-8.0626221
		c-5.1303711-3.1276245-9.9523315-6.7623596-15.0924683-9.872345c-3.1853027-1.9273071-6.7490234-3.218277-10.0797119-4.9187927
		c-10.1270142-5.1707001-20.2023315-10.4429474-30.3378296-15.596817
		c-9.2782593-4.7178802-18.9804077-8.7301025-27.8059692-14.1721039
		c-7.9944458-4.9296112-15.1471558-11.2584839-22.4957886-17.1876373c-3.925293-3.1669922-7.2720947-7.0605927-11.2487183-10.151886
		c-6.7035522-5.2110596-11.1712646-12.0862122-15.5356445-19.1418762c-1.25177-2.0237274-3.3414917-3.5342255-4.5629883-5.5703888
		c-2.0917969-3.4872742-4.0864868-7.0877686-5.6147461-10.8469086c-3.40271-8.3699646-6.7389526-16.7831421-9.65271-25.331955
		c-4.647522-13.6357651-7.7449951-27.594841-6.9049072-42.1520538c0.281311-4.8742294,0.6342773-9.7489929,1.1339111-14.6050262
		c1.4154663-13.7567673,22.6697388-31.5363846,37.9205933-25.60783c5.5316162,2.1503716,11.0457764,5.8390808,15.015625,10.2294693
		c11.2195435,12.4079857,12.7263794,27.6714363,8.4903564,43.006237
		c-3.0939331,11.2008286-7.8779297,22.0830536-13.1228638,32.4957504
		c-4.3747559,8.6852417-5.5493164,17.1516418-3.3981934,26.3797607c0.6633911,2.8456573,0.7526245,5.9020996,1.8555298,8.5491943
		c1.4472046,3.4730988,2.9271851,7.4785614,5.6447144,9.7717438c7.5230103,6.3482208,13.1412964,15.2561951,23.0379639,18.4954834
		c8.0997925,2.6511841,15.4442749,7.7395477,24.7216797,6.8211975c3.6878052-0.3650513,7.5547485,1.7276459,11.3991089,2.1108246
		c3.6522827,0.3640747,7.397583-0.2818756,11.0717163-0.0346375c2.8850708,0.1941681,5.7241211,1.0731506,8.4543457,1.6219635
		c3.109436,0,6.298645-0.4772339,9.2866211,0.09552c7.0568848,1.3527222,14.171875,2.7433014,20.9671021,5.0076447
		c5.0479126,1.6821136,10.6741943,2.9323578,14.0345459,7.9037476c0.6261597,0.9263458,1.3800659,2.2765808,2.2598877,2.4408112
		c7.2884521,1.3602905,10.6929932,8.3800507,16.8528442,11.4189758c1.6625977,0.8202209,2.2678833,3.5516052,3.7610474,4.9868317
		c6.6212158,6.3639526,14.1048584,11.982605,19.9145508,18.9986877
		c6.6306763,8.0076904,15.7834473,12.1416931,23.8466187,17.8439331
		c7.6906128,5.4390259,16.7753906,8.8651733,24.7630615,13.9386597c6.7875977,4.3112793,14.5053711,6.2904053,21.4448242,10.0407104
		c2.0289307,1.096405,3.3831787,3.4150696,5.3900146,4.5837708c3.1599121,1.8401489,6.8061523,2.8695984,9.8914795,4.807373
		c4.4494629,2.7945251,8.9406738,5.708374,12.7666016,9.267395c6.229126,5.794342,12.3823242,11.7865906,17.7442627,18.3662415
		c6.2764893,7.7019958,13.9523926,14.6340027,15.9578857,25.2065735c0.5148926,2.7147827,2.3950195,5.1868591,3.7322998,7.7259827
		c2.4243164,4.603302,4.1811523,9.2708435,3.6469727,14.6985168c-0.1375732,1.3998718,1.8740234,2.899231,2.5026855,4.5075378
		c1.9050293,4.8743286,4.6660156,9.7249451,5.1439209,14.7695312c0.6351318,6.7027893-0.5688477,13.5798035-1.0306396,21.1677246
		c0.4755859,0.274231,1.7770996,1.0251465,3.7611084,2.1695251c-5.2476807,4.5173035-5.6456299,10.6542358-7.4401855,16.5248413
		c-1.7855225,5.8409729-7.3022461,10.8587036-11.9672852,15.4387207
		c-11.1054688,10.9032593-22.5158691,21.5133667-34.1540527,31.8464355
		c-3.4145508,3.0315552-8.0144043,4.7237854-12.0544434,7.0582581c-0.9468994,0.5471497-1.8057861,1.2450562-2.7415771,1.8134766
		c-3.925415,2.3843079-7.8588867,4.7553406-11.8006592,7.1125488c-3.107666,1.8583984-6.1501465,3.8484802-9.3648682,5.5010681
		c-7.7502441,3.9840088-15.5688477,7.8370972-23.3911743,11.6791992c-4.9992676,2.4556274-9.9453735,5.074585-15.1155396,7.1123047
		c-5.0466309,1.9890137-10.4104614,3.1592407-15.5171509,5.0137329c-4.1535034,1.5084229-8.1405029,3.479126-12.1812744,5.2896729
		c-0.7122803,0.3191528-1.3342896,1.25177-1.9832153,1.2372437c-7.3591919-0.1644287-12.6089478,4.8049927-18.8610229,7.3048706
		c-6.8197021,2.7268066-14.4735718,3.3441162-21.7294922,5.0290527c-1.0823364,0.2512817-1.9147339,1.4326782-2.9694824,1.9766235
		c-3.4067383,1.756897-6.871521,4.8617554-10.2989502,4.842041c-10.0541992-0.0579224-17.5147095,5.2892456-25.3649902,10.1268921
		c-0.414856,0.2556763-0.7729492,0.8222046-1.1780396,0.8429565c-12.6976318,0.652771-20.4865112,12.5982666-32.9162598,14.215332
		c-3.7980347,0.4940186-7.4000244,3.1719971-10.8929443,5.1934204c-7.3325195,4.2432251-14.5185547,8.7390137-21.8040771,13.0647583
		c-1.0767822,0.6393433-2.3708496,0.9102783-3.5600586,1.3629761c-1.2056274,0.4588623-2.9286499,0.5762329-3.5266113,1.454834
		c-5.0831909,7.4680786-13.2614746,10.3068237-20.6333008,14.442627c-1.8618774,1.0446167-2.6853027,3.7935181-4.2943115,5.461731
		c-5.7939453,6.007019-12.5032959,11.3192749-17.3411255,17.9989624
		c-3.7061768,5.1172485-4.6639404,12.1348267-7.6669922,17.8768311c-3.0023804,5.7407227-1.789917,11.7442017-2.7041016,17.5844727
		c-1.081604,6.9095459,2.7457886,11.0640259,6.9178467,14.9719238c5.880127,5.5076904,12.0268555,10.7995605,18.5073242,15.576355
		c5.3167114,3.9190674,11.3776855,6.8129272,16.9208984,10.447876c2.109314,1.3832397,3.6940918,3.5662842,5.5179443,5.3846436
		C813.5471802,729.3080444,813.3597412,729.7396851,813.1721191,730.1711426z"/>
	<path style="fill:#FFFFFF;" d="M1464.784668,1747.9333496c-0.6358643-2.6199951-2.5970459-7.2562256-2.7581787-11.9543457
		c-0.732666-21.3699951,7.8205566-39.6143799,20.0889893-56.4508057
		c3.8381348-5.2670898,7.5246582-10.6612549,11.6343994-15.7088623c3.4758301-4.2692871,7.2285156-8.3764648,11.2738037-12.1048584
		c7.7597656-7.1516113,15.008667-15.3380127,23.9283447-20.6417236
		c14.6520996-8.7127686,27.6916504-21.1540527,45.6688232-23.2374268c10.019165-1.161377,20.1179199-1.9472656,29.9835205,1.651001
		c5.1856689,1.8912354,11.8383789-0.5692139,15.0938721-4.9237061c1.0427246-1.3947754,2.7519531-2.3530273,3.5814209-3.8331299
		c2.4848633-4.434082,4.8641357-8.9481201,6.9238281-13.5910645c1.0733643-2.4204102,1.2697754-5.2144775,2.0688477-7.7755127
		c1.5609131-5.0036621,4.144165-9.8603516,4.7359619-14.9597168c1.3590088-11.7097168,8.1838379-19.2453613,17.010376-25.9240723
		c12.6169434-9.5466309,25.3884277-18.963501,37.2834473-29.3630371
		c7.6168213-6.6593018,13.8071289-14.9598389,20.5306396-22.6177979c0.6516113-0.7415771,0.4937744-2.1593018,0.8134766-3.2327881
		c1.3074951-4.3905029,2.3966064-8.4552002,5.7416992-12.3817139c4.8984375-5.7495117,7.8001709-13.2037354,11.517334-19.9511719
		c0.5301514-0.9624023,0.6790771-2.166748,1.3109131-3.036499c7.3494873-10.1171875,10.987915-21.6496582,13.6745605-33.7119141
		c1.4500732-6.510498,4.4145508-12.6705322,6.3500977-19.0930176c0.7102051-2.3564453,0.4056396-5.0144043,0.597168-7.5321045
		c0.3549805-4.6724854,0.5548096-9.3664551,1.1593018-14.006958c0.5026855-3.8591309,1.5223389-7.6489258,2.2503662-11.4813232
		c0.241333-1.2700195,0.4644775-2.5864258,0.3968506-3.8657227c-0.6029053-11.3956299-0.8106689-22.8417969-2.131958-34.1564941
		c-0.5982666-5.1209717-2.7703857-10.3826904-5.4383545-14.8596191c-3.815918-6.4031982-8.6010742-12.2584229-13.2913818-18.0906982
		c-1.1820068-1.4700928-3.5270996-2.0812988-5.4230957-2.8862305c-6.6556396-2.8262939-12.5187988-6.8621826-19.7575684-9.1014404
		c-12.5714111-3.8892822-24.8935547-4.416626-37.2857666-2.208252
		c-15.1737061,2.7038574-27.9049072,9.9016113-38.8789062,21.5332031
		c-8.2061768,8.6976318-13.0844727,19.2496338-20.2895508,28.3740234
		c-5.8787842,7.444458-11.1212158,15.3890381-16.7319336,23.0489502c-2.2991943,3.1390381-7.7399902,4.2015381-11.5025635,2.5838623
		c-9.2210693-3.9639893-12.2667236-12.5909424-16.3972168-20.7081299
		c-8.3706055-16.4492188-8.8991699-34.0083008-9.5374756-51.8764648
		c-0.4572754-12.7995605,2.1210938-24.3931885,7.2120361-35.9234619
		c4.2619629-9.6516113,12.1103516-15.0946045,20.6846924-19.9595947
		c16.3059082-9.2518311,34.3162842-13.9571533,52.1212158-19.1424561c3.0778809-0.8963623,6.4647217-1.0089111,9.7089844-1.012085
		c22.5285645-0.0222168,45.0726318-0.4147949,67.5817871,0.2794189
		c23.3190918,0.7193604,42.8297119,10.6158447,59.855957,26.4625244
		c10.798584,10.0506592,19.6751709,21.2111816,25.8195801,34.5667725c0.9379883,2.0383301,1.6048584,4.2034912,2.3640137,6.3217773
		c5.2750244,14.7160645,10.7431641,29.3806152,12.7324219,45.0231934
		c1.9063721,14.9926758,4.0501709,29.9619141,5.5913086,44.9925537c2.239502,21.8438721-4.6990967,41.9295654-13.0291748,61.5595703
		c-11.8770752,27.9885254-30.6970215,50.5085449-54.8721924,68.8043213
		c-5.2905273,4.0040283-9.7415771,9.1088867-14.6386719,13.6424561
		c-8.4710693,7.8421631-16.8703613,15.7667236-25.5140381,23.4145508
		c-12.9572754,11.463623-25.7978516,22.9996338-34.7583008,38.0865479
		c-5.3726807,9.0461426-10.0708008,18.5646973-16.1502686,27.1035156
		c-10.0911865,14.1734619-20.9326172,27.7923584-34.8916016,38.6102295
		c-2.9454346,2.2827148-4.762085,6.0828857-6.9309082,9.2972412c-8.6972656,12.8884277-16.9342041,26.1118164-26.1473389,38.6176758
		c-4.7288818,6.4189453-11.2687988,11.4814453-16.7595215,17.3725586c-2.0577393,2.2078857-3.0128174,5.5429688-5.2416992,7.4747314
		c-8.7098389,7.5479736-14.6524658,17.2305908-21.6263428,26.1790771
		c-11.7473145,15.072876-28.0466309,23.7801514-46.5383301,27.7382812c-7.638916,1.6348877-15.7312012,1.3067627-23.6256104,1.46521
		c-1.6010742,0.0323486-3.368042-1.5960693-4.8336182-2.7454834
		C1473.458374,1755.2364502,1469.9537354,1752.2202148,1464.784668,1747.9333496z"/>
	<path style="fill:#FFFFFF;" d="M1074.37854,952.772644c-3.4390869-2.2840576-3.6915283-4.081665-0.4545898-6.0581665
		c2.9996338-1.8314209,5.8623047-3.9028931,8.6773682-6.0126953c0.9868164-0.739502,2.057251-1.788147,2.3857422-2.9028931
		c0.8448486-2.8670044,1.4168701-5.7131348,5.0444336-6.3735962c0.4439697-0.0807495,0.8426514-0.9802246,1.072876-1.5737305
		c1.4763184-3.8087769,2.3806152-7.9528809,4.4627686-11.3864746c3.0949707-5.1038818,4.6005859-10.5861816,5.9870605-16.2418823
		c0.2751465-1.1220703,1.9846191-1.8925171,2.4107666-2.2716675c0.4451904-4.1536865,1.0327148-7.6674805,1.1542969-11.1971436
		c0.2276611-6.5994263,0.1859131-13.208252,0.2543945-19.8131104c0.0491943-4.7272339,0.159668-9.4553833,0.0889893-14.1807861
		c-0.0140381-0.9440918-0.5830078-1.9725342-1.1397705-2.7976074c-1.4100342-2.09021-3.5507812-3.8865967-4.3216553-6.1651001
		c-1.3664551-4.0400391-1.0465088-8.8370361-3.0244141-12.444458c-3.9727783-7.2461548-8.5812988-14.2543335-13.7506104-20.7008057
		c-4.543335-5.6658936-9.989502-10.6780396-15.4348145-15.5328369c-7.1157227-6.343811-14.7006836-12.1589355-21.9075928-18.4046021
		c-1.8146973-1.5725098-2.5476074-4.6084595-4.4946289-5.769043c-4.3891602-2.6164551-9.3717041-4.2232056-13.8343506-6.7355957
		c-3.3372803-1.8789673-6.0150146-4.9539795-9.3865356-6.7418213c-5.2971191-2.8087769-10.9155884-4.9182739-12.7766724-11.5614624
		c-0.2030029-0.7249146-2.3360596-0.963623-3.6037598-1.3226318c-1.7749634-0.5026855-4.6934204-0.3920898-5.177063-1.440979
		c-2.1774902-4.7219238-6.7754517-5.7081299-10.5960693-7.9483643c-5.1824341-3.0388184-10.0526123-6.7515869-15.510437-9.1369019
		c-4.8249512-2.1085815-7.8433838-5.6040039-10.9660645-9.4069214c-0.8805542-1.0723877-2.7539673-1.4110107-4.2346802-1.894043
		c-4.5889282-1.4968872-9.3761597-2.5213623-13.7623291-4.4615479c-3.5324707-1.562439-6.5863647-4.2006226-9.8676758-6.3381958
		c-2.2376709-1.4577637-4.5036621-2.8718262-6.7530518-4.3115845c-5.2472534-3.3585205-10.9224854-6.2156372-15.6217041-10.2182007
		c-5.0897827-4.3352661-10.6651611-7.9850464-15.7198486-12.2363281c-3.9561768-3.3272095-6.6013184-8.2654419-9.5731812-12.6607056
		c-0.5181274-0.7661133,0.2114868-2.3932495,0.4003296-3.6171875c0.8724976-5.6540527,0.5239258-11.7758179,5.9708252-15.6897583
		c-0.085083-8.0576172,5.135498-12.8914795,10.9672241-16.9650269c2.0193481-1.4105835,5.1986084-1.1610107,7.8479614-1.6697388
		c0.2471313,0.4940796,0.4942627,0.9882812,0.741394,1.4824219c0.6853027-1.3911743,1.335022-2.8013306,2.062561-4.1700439
		c2.6616211-5.0077515,6.4013672-8.6348267,11.4632568-11.572876c2.7723389-1.6091309,4.9177856-3.6591187,8.3691406-3.4312134
		c0.6274414,0.0414429,1.8067017-0.7957153,1.9041748-1.3681641c0.9404907-5.5194702,6.0874634-4.1661377,9.3400879-5.862793
		c2.1812744-1.1377563,4.2985229-2.4833374,6.6035767-3.2693481c1.6223145-0.5531616,3.5119019-0.3219604,3.855835-0.3450928
		c3.4022217-1.3864136,5.6889038-2.2215576,7.8933716-3.2357178c5.5254517-2.5418701,10.9926147-5.2115479,16.529541-7.7277222
		c1.71698-0.7802124,3.5778198-1.2490234,5.3823853-1.8302002c2.4810181-0.7989502,4.9486694-1.6519165,7.4620972-2.3338623
		c4.5819092-1.242981,9.2098999-2.3166504,13.7870483-3.5754395c3.8798828-1.0670776,7.7285767-2.2537842,11.565918-3.46698
		c2.9396362-0.9293823,6.003418-2.8534546,7.2913818,1.4949951c4.8039551-2.6091309,8.9813232-6.5462036,13.4710693-6.9422607
		c7.5592041-0.6669312,13.8388672-4.5943604,20.9625244-6.057312c1.2061768-0.2476807,2.098877-1.7623901,3.2945557-2.3904419
		c1.2790527-0.6717529,2.7908936-0.8861694,4.118042-1.4842529c1.5548096-0.7010498,2.9349365-1.8956909,4.539917-2.361084
		c5.9473877-1.7249146,8.4974365-6.8023682,11.8769531-11.2261353c2.2114258-2.8949585,4.8619385-5.8461304,7.9790039-7.5793457
		c7.4967041-4.1682129,15.0787354-9.1807861,24.3105469-6.5796509c1.6408691,0.4622803,3.2769775,3.3181763,3.6706543,5.314209
		c0.7252197,3.6784668,1.5697021,5.9264526,5.9891357,4.390625c1.0187988-0.3540649,3.1334229,0.2867432,3.6175537,1.1223755
		c0.5513916,0.9517212-0.107666,2.6431885-0.3520508,3.993042c-0.067627,0.3745117-0.7298584,0.6504517-0.7799072,1.0177612
		c-0.3730469,2.7423706,0.1745605,6.0056763-1.1333008,8.1502075c-3.7711182,6.1836548-10.5616455,7.8069458-17.0385742,9.6689453
		c-3.0881348,0.8876953-6.1242676,1.97229-9.2390137,2.7461548c-4.2629395,1.0592041-8.6014404,1.8138428-12.8626709,2.8789062
		c-2.8685303,0.717041-5.6916504,1.6547241-8.4782715,2.6522217c-6.6654053,2.3856201-13.2200928,5.1088257-19.9633789,7.2416992
		c-7.5322266,2.3823853-15.2259521,4.2539062-22.8414307,6.3770142c-0.7749023,0.2160034-1.5142822,0.5928955-2.236084,0.9619751
		c-7.5172119,3.8449097-15.0852661,7.5965576-22.5078735,11.6165161c-2.56604,1.3897705-4.7123413,3.5338745-7.1433105,5.1975708
		c-6.0715332,4.1547241-12.2685547,8.1311035-18.2412109,12.4213867c-1.2470093,0.895752-1.5350952,3.0194092-2.6263428,4.2592163
		c-3.367981,3.8265991-7.8702393,6.7867432-9.1739502,12.1453247c-0.4713135,1.9365845-0.696167,3.9320679-1.0704956,5.8936157
		c-0.4735718,2.4815063-0.9853516,4.9558105-1.4798584,7.4334106c-0.4611816,2.3106079-2.9976196,4.678894,0.2325439,6.9076538
		c0.2824097,0.1949463,0.4521484,1.090271,0.2577515,1.3599854c-4.0305176,5.5917358,1.9995117,10.2836914,1.4730225,15.7295532
		c-0.2453613,2.5377808,2.4411011,5.3590698,4.0809937,8.6122437c3.1194458-0.1431274,5.3278198,1.9382935,7.911499,5.0586548
		c3.383606,4.0861816,8.4259644,6.9157715,13.0395508,9.8358154c5.3304443,3.3735962,10.9443359,6.3058472,16.4939575,9.3216553
		c1.4650269,0.7961426,3.1465454,1.1939697,4.9558716,1.8580933c-0.0526733,0.8522339-0.1192017,1.9256592-0.1829224,2.9535522
		c0.465271,0.15802,0.8824463,0.4371338,1.036438,0.331604c2.9890747-2.0460205,4.5740967,0.5439453,6.7242432,1.7991333
		c3.3259277,1.9415894,6.8961182,3.4647827,10.8857422,5.421936c0.03125-0.2252808-0.1357422,0.9726562-0.3039551,2.1782227
		c7.0402832,0.8689575,13.9039307,1.5151978,18.7957764,7.2501221c0.1795654,0.2104492,0.6263428,0.4215698,0.8391113,0.3414307
		c5.3243408-2.0042725,8.3588867,0.2965088,10.0473633,5.2474365c0.0814209,0.2389526,0.479126,0.427063,0.7683105,0.5302124
		c9.1481934,3.2600708,18.3012695,6.5068359,26.8155518,10.5844116c3.4233398,2.2329102,6.8466797,4.4656982,10.2697754,6.6984863
		c3.0552979,0.9724731,7.2137451-0.3435059,8.2680664,4.9482422c0.026001,0.1305542,0.1669922,0.3417969,0.2546387,0.3418579
		c7.8618164,0.0120239,9.6697998,9.7208862,17.4515381,10.6948242c2.9060059,0.3638916,5.2095947,4.9572144,7.9553223,7.4369507
		c1.2849121,1.1607056,2.9351807,1.9393921,4.4760742,2.7894897c2.8226318,1.557251,5.0632324,3.2197266,5.5294189,6.9685669
		c0.3937988,3.1708984,2.0286865,6.1876831,2.8212891,9.3482056c2.770874,5.2700195,9.1682129,6.7360229,11.5921631,13.6011353
		c1.7947998,5.0817871,2.2697754,10.4937134,4.4511719,15.4103394c0.4606934,1.0387573-0.1867676,2.515686-0.0367432,3.7559204
		c0.3905029,3.2250366,1.2120361,6.4190674,1.3496094,9.6472168c0.1367188,3.2050781-0.4217529,6.4338989-0.5484619,9.6572266
		c-0.2203369,5.6055908,0.8331299,11.4371338-4.2329102,15.8880615c-0.9996338,0.8782349-0.5238037,3.2711792-1.0880127,4.8361206
		c-3.5710449,9.90625-8.3757324,19.118103-15.49646,27.0045166c-0.7312012,0.8099976-1.4333496,1.8461914-1.6538086,2.8827515
		c-0.8591309,4.0394897-2.6844482,6.3937988-5.8807373,4.9133301c-3.0819092,3.81604-5.8203125,6.9273071-8.2338867,10.272644
		c-2.4072266,3.336792-4.4816895,6.9130249-6.7167969,10.375c-0.8635254,1.3378296-1.5393066,2.90802-2.6934814,3.9273071
		c-3.9301758,3.4702759-8.0362549,6.7409058-12.0714111,10.092041c-0.2432861,0.2020874-0.6663818,0.4560547-0.6520996,0.6611328
		c0.4884033,7.0151367-5.7994385,7.2739868-9.7468262,9.9022217c-1.1312256,0.7532959-1.9429932,1.9742432-2.9489746,2.9304199
		c-2.6885986,2.5551758-5.4046631,5.0814209-8.1068115,7.6223755c-2.515625,2.3657837-6.31604,4.303772-7.2833252,7.1900024
		c-2.2780762,6.7978516-7.8419189,6.4396973-12.9049072,7.6358643c-3.6699219,0.8672485-7.4436035,1.4697876-10.9588623,2.7658691
		c-2.9637451,1.0924683-3.6256104,0.6668091-3.019165-2.4021606c0.6674805-3.3792725,0.5494385-7.0063477,5.9154053-6.0742188
		c2.0256348,0.3518677,8.9019775-7.5079956,8.4537354-9.7556152c-0.680542-3.4124756,0.5982666-3.6453247,3.2852783-3.2470703
		C1072.3696289,954.3673096,1073.0970459,953.5469971,1074.37854,952.772644z"/>
	<path style="fill:#FFFFFF;" d="M1535.7979736,1893.1427002c2.2373047-12.4769287,5.8356934-26.6005859,19.0810547-35.810791
		c12.1556396-8.4523926,24.0322266-5.0435791,29.9195557,8.4398193
		c6.9709473,15.9656982,3.0305176,29.4526367-11.6125488,39.0493164c-3.8009033,2.4909668-7.7375488,4.9765625-11.9439697,6.6103516
		C1548.5754395,1916.3515625,1535.8579102,1908.1945801,1535.7979736,1893.1427002z"/>
	<path style="fill:#FFFFFF;" d="M330.023468,1707.6356201c-0.0148926,13.614502-5.6157837,18.449585-15.4049988,19.1947021
		c-3.8646545,0.2940674-8.5112305-0.3688965-11.7111511-2.3538818
		c-10.8613281-6.737793-18.3260498-16.1134033-18.5204773-29.6647949
		c-0.1433411-9.9870605,5.0277405-17.888916,13.2602234-20.807251c8.2096863-2.9101562,18.6146851,0.470459,24.3989563,8.088501
		C327.7735596,1689.6362305,330.1037292,1698.2794189,330.023468,1707.6356201z"/>
	<path style="fill:#FFFFFF;" d="M158.1183777,1587.1135254c0.3170929-7.246582,2.6020966-13.5003662,9.4929352-16.9556885
		c6.804718-3.4121094,12.8842163-1.2481689,18.6682587,2.9443359c5.1563873,3.7375488,8.9631653,8.1849365,10.4331512,14.625
		c1.0412598,4.5615234,2.7844238,8.97229,4.3474579,13.4030762c2.5514679,7.2335205-2.0810394,16.644165-9.6518402,17.237793
		c-5.5765076,0.4368896-12.4996948,0.1262207-16.790329-2.8156738
		C165.0465088,1608.9899902,158.4261169,1599.6268311,158.1183777,1587.1135254z"/>
	<path style="fill:#FFFFFF;" d="M168.8639984,1668.4298096c-0.0757294,5.4260254-3.956543,9.3395996-9.2025299,9.279541
		c-5.8130341-0.0661621-12.8397827-8.4243164-12.7363281-15.1491699c0.0791931-5.1478271,3.9403687-9.0100098,8.964325-8.9663086
		C162.1404724,1653.6478271,168.9613647,1661.4477539,168.8639984,1668.4298096z"/>
	<path style="fill:#FFFFFF;" d="M1705.0831299,1862.373291c-0.1029053-6.8096924,6.8770752-15.1722412,12.7032471-15.2188721
		c4.9172363-0.0395508,8.9283447,3.9354248,9.0759277,8.9937744c0.1922607,6.5876465-6.9578857,14.9285889-12.8878174,15.0343018
		C1708.6314697,1871.277832,1705.1658936,1867.8443604,1705.0831299,1862.373291z"/>
</g>
<rect x="312.3969727" y="1350.5" style="display:none;fill:#FFFFFF;" width="1374.9995117" height="5"/>
<rect x="312.3969727" y="1720.5" style="display:none;fill:#FFFFFF;" width="1374.9995117" height="5"/>
<g style="display:none;">
	<g style="display:inline;">
		<g>
			<path style="fill:#FFFFFF;" d="M147.3076172,1469.6162109v-9.6005859h33.6005859v13.2001953h-2.3999023L147.3076172,1469.6162109
				z M180.9082031,1607.6191406v13.2001953h-33.6005859v-9.6005859l31.2006836-3.5996094H180.9082031z M170.1079102,1534.4169922
				c0-24.7197266,0-49.6806641-0.7197266-74.4013672h23.0405273c-0.7202148,24.2402344-0.7202148,49.2011719-0.7202148,74.4013672
				v8.4003906c0,28.3212891,0,53.28125,0.7202148,78.0019531h-23.0405273
				c0.7197266-24.2402344,0.7197266-49.2011719,0.7197266-74.4013672V1534.4169922z M180.9082031,1532.2568359h23.7607422
				c29.5205078,0,42.2407227-9.359375,42.2407227-31.4404297c0-22.0800781-12.7202148-29.7607422-37.4404297-29.7607422h-28.5610352
				v-11.0400391h35.5209961c32.8808594,0,52.0810547,16.3203125,52.0810547,39.3613281
				c0,18.7197266-12.9599609,35.2802734-44.8808594,39.1201172v-2.1591797
				c37.440918,3.1191406,52.8012695,19.9199219,52.8012695,40.5605469c0,21.8408203-18.0004883,43.9208984-63.3618164,43.9208984
				h-32.1606445v-11.0400391h26.4008789c31.2006836,0,46.3208008-11.7607422,46.3208008-32.8808594
				c0-22.3203125-14.6401367-33.6005859-48.2412109-33.6005859h-24.4804688V1532.2568359z"/>
			<path style="fill:#FFFFFF;" d="M445.3886719,1540.4179688c0,52.5605469-36.0009766,84.0009766-73.2016602,84.0009766
				s-73.4414062-29.2802734-73.4414062-84.0009766c0-52.5615234,36.4804688-84.0019531,73.4414062-84.0019531
				S445.3886719,1485.6962891,445.3886719,1540.4179688z M372.1870117,1612.4189453
				c33.8408203,0,48.0009766-36.0009766,48.0009766-72.0009766c0-36.0009766-14.1601562-72.0019531-48.0009766-72.0019531
				s-48.2412109,36.0009766-48.2412109,72.0019531C323.9458008,1576.4179688,338.3461914,1612.4189453,372.1870117,1612.4189453z"/>
			<path style="fill:#FFFFFF;" d="M466.5019531,1611.21875l25.2006836-3.5996094h4.800293l27.6005859,3.5996094v9.6005859
				h-57.6015625V1611.21875z M481.6225586,1467.4560547l14.8803711,5.7597656l-28.8007812-3.5996094v-9.6005859h36.0009766
				l99.6020508,137.0429688v25.4404297H595.625L481.6225586,1467.4560547z M486.9023438,1460.015625l12.0004883,9.6005859
				v151.203125h-12.0004883V1460.015625z M566.1044922,1460.015625h57.6010742v9.6005859l-24.0004883,3.5996094h-4.800293
				l-28.800293-3.5996094V1460.015625z M591.3051758,1460.015625h12v162.4833984l-12-12V1460.015625z"/>
			<path style="fill:#FFFFFF;" d="M692.3398438,1460.015625c-0.7202148,24.2402344-0.7202148,49.2011719-0.7202148,74.4013672
				v38.1611328c0,26.8808594-0.4799805,39.1210938-2.8798828,51.3613281
				c-4.5600586,24.0009766-24.7207031,35.7607422-44.6411133,35.7607422c-8.8803711,0-18.2402344-2.4003906-20.4003906-11.5205078
				c1.4399414-8.6396484,6.9599609-11.5195312,14.4003906-11.5195312c6,0,11.0400391,1.9199219,17.7602539,6.9599609l7.9199219,6
				l-1.9199219,2.6396484L659.9389648,1652.5l-0.4799805-1.9199219
				c9.1201172-6.9599609,12.2402344-15.8408203,12.2402344-30.9609375c0-14.4003906-1.2001953-39.3603516-2.3999023-159.6035156
				H692.3398438z M644.8188477,1460.015625h69.6015625v9.6005859l-31.2011719,3.5996094h-4.7998047l-33.6005859-3.5996094
				V1460.015625z"/>
			<path style="fill:#FFFFFF;" d="M880.9790039,1540.4179688c0,52.5605469-36.0014648,84.0009766-73.2021484,84.0009766
				s-73.4414062-29.2802734-73.4414062-84.0009766c0-52.5615234,36.4804688-84.0019531,73.4414062-84.0019531
				S880.9790039,1485.6962891,880.9790039,1540.4179688z M807.7768555,1612.4189453
				c33.8408203,0,48.0009766-36.0009766,48.0009766-72.0009766c0-36.0009766-14.1601562-72.0019531-48.0009766-72.0019531
				s-48.2412109,36.0009766-48.2412109,72.0019531C759.5356445,1576.4179688,773.9360352,1612.4189453,807.7768555,1612.4189453z"/>
			<path style="fill:#FFFFFF;" d="M902.0922852,1469.6162109v-9.6005859h67.2011719v9.6005859l-31.2011719,3.5996094h-4.7998047
				L902.0922852,1469.6162109z M984.1733398,1607.6191406c27.6020508,0,41.5219727-15.6005859,41.5219727-58.5615234v-89.0419922h12
				v95.2822266c0,50.4013672-24.4804688,69.1210938-56.8813477,69.1210938
				c-34.8007812,0-58.3212891-19.4404297-58.3212891-64.0810547v-25.9208984c0-24.7197266,0-49.6806641-0.7207031-74.4013672
				h23.0410156c-0.7197266,24.2402344-0.7197266,49.2011719-0.7197266,74.4013672v18.9609375
				C944.0932617,1594.6591797,959.6928711,1607.6191406,984.1733398,1607.6191406z M1027.375,1473.2158203l-26.4008789-3.5996094
				v-9.6005859h57.6020508v9.6005859l-26.4003906,3.5996094H1027.375z"/>
			<path style="fill:#FFFFFF;" d="M1077.7685547,1469.6162109v-9.6005859h33.6015625v13.2001953h-2.4003906
				L1077.7685547,1469.6162109z M1113.7695312,1607.6191406l31.2011719,3.5996094v9.6005859h-67.2021484v-9.6005859
				l31.2011719-3.5996094H1113.7695312z M1100.5693359,1534.4169922c0-24.7197266,0-49.6806641-0.7197266-74.4013672h23.0400391
				c-0.7197266,24.9609375-0.7197266,48.4814453-0.7197266,76.8017578v7.2001953c0,27.1210938,0,52.0810547,0.7197266,76.8017578
				h-23.0400391c0.7197266-24.2402344,0.7197266-49.2011719,0.7197266-74.4013672V1534.4169922z M1111.3701172,1535.6171875h30
				c25.9208984,0,38.4013672-13.9199219,38.4013672-33.3603516c0-20.1611328-10.8007812-31.2011719-35.7607422-31.2011719
				h-32.640625v-11.0400391h32.8808594c36.7207031,0,58.3212891,15.6005859,58.3212891,42.2412109
				c0,20.4003906-16.0810547,38.8808594-47.5214844,41.5205078l0.7197266-1.9199219
				c17.2802734,1.6796875,27.8408203,9.6005859,34.3212891,31.2011719l11.7597656,39.8408203l-7.4394531-4.5605469
				l24.7197266,2.8798828v9.6005859c-4.3193359,1.4404297-10.0800781,2.4003906-17.2802734,2.4003906
				c-14.8798828,0-21.3603516-3.8408203-24.2402344-14.8808594l-9.8398438-39.1210938
				c-4.8007812-19.4404297-13.6806641-22.7998047-33.6015625-22.7998047h-22.7998047V1535.6171875z"/>
			<path style="fill:#FFFFFF;" d="M1415.2080078,1597.0585938v13.2001953l-14.8808594,3.3603516l6.0009766-35.5205078h14.6396484
				l-0.9599609,34.8007812c-15.1201172,8.1601562-31.6806641,11.5195312-48.4804688,11.5195312
				c-48.4814453,0-81.1220703-35.0400391-81.1220703-84.0009766c0-48.0019531,34.0800781-84.0019531,80.8818359-84.0019531
				c12.9599609,0,30,2.1591797,46.3212891,11.5195312l0.9599609,34.8007812h-14.640625l-6-35.5205078l14.8798828,3.3603516
				v14.6396484c-13.6796875-12.7197266-27.1201172-16.7998047-38.640625-16.7998047
				c-32.4003906,0-58.5615234,25.2001953-58.5615234,72.0019531c0,46.8007812,23.5205078,72.0009766,56.8818359,72.0009766
				C1386.1669922,1612.4189453,1401.5273438,1608.3388672,1415.2080078,1597.0585938z"/>
			<path style="fill:#FFFFFF;" d="M1431.7617188,1611.21875l24-3.5996094h4.8007812l26.4003906,3.5996094v9.6005859h-55.2011719
				V1611.21875z M1503.2832031,1458.8154297h14.4003906l55.2011719,162.0039062h-22.3203125l-48.2412109-143.7636719h5.5205078
				l-48.9619141,143.7636719h-11.2802734L1503.2832031,1458.8154297z M1475.2021484,1557.2177734h64.8017578l3.8398438,11.0400391
				h-72.4814453L1475.2021484,1557.2177734z M1522.4833984,1611.21875l30.2412109-3.5996094h4.7998047l29.7607422,3.5996094
				v9.6005859h-64.8017578V1611.21875z"/>
			<path style="fill:#FFFFFF;" d="M1600.4804688,1469.6162109v-9.6005859h33.6015625v13.2001953h-2.4003906
				L1600.4804688,1469.6162109z M1636.4814453,1607.6191406l31.2011719,3.5996094v9.6005859h-67.2021484v-9.6005859
				l31.2011719-3.5996094H1636.4814453z M1623.28125,1534.4169922c0-24.7197266,0-49.6806641-0.7197266-74.4013672h23.0400391
				c-0.7197266,24.2402344-0.7197266,49.2011719-0.7197266,74.4013672v9.1201172c0,27.6015625,0,52.5615234,0.7197266,77.2822266
				h-23.0400391c0.7197266-24.2402344,0.7197266-49.2011719,0.7197266-74.4013672V1534.4169922z M1700.5634766,1460.015625
				l10.7998047,12h-77.28125v-12h85.6816406l1.6796875,42.7207031h-13.4404297L1700.5634766,1460.015625z
				 M1690.2431641,1544.2578125h-56.1611328v-11.0400391h56.1611328V1544.2578125z M1682.5625,1535.6171875l3.6005859-25.4404297
				h10.7998047v59.28125h-10.7998047l-3.6005859-26.640625V1535.6171875z"/>
			<path style="fill:#FFFFFF;" d="M1739.4384766,1469.6162109v-9.6005859h33.6015625v13.2001953h-2.4003906
				L1739.4384766,1469.6162109z M1773.0400391,1607.6191406v13.2001953h-33.6015625v-9.6005859l31.2011719-3.5996094H1773.0400391z
				 M1762.2392578,1534.4169922c0-24.7197266,0-49.6806641-0.7197266-74.4013672h23.0400391
				c-0.7197266,24.2402344-0.7197266,49.2011719-0.7197266,74.4013672v9.1201172c0,27.6015625,0,52.5615234,0.7197266,77.2822266
				h-23.0400391c0.7197266-24.2402344,0.7197266-49.2011719,0.7197266-74.4013672V1534.4169922z M1839.5214844,1460.015625
				l10.7998047,12h-77.28125v-12h85.6816406l1.6796875,42.7207031h-13.4404297L1839.5214844,1460.015625z M1827.28125,1544.2578125
				h-54.2412109v-11.0400391h54.2412109V1544.2578125z M1865.2021484,1578.0986328l-1.6806641,42.7207031h-90.4814453v-12
				h82.0810547l-10.7998047,12l7.4404297-42.7207031H1865.2021484z M1819.6005859,1535.6171875l3.6005859-25.4404297h10.7998047
				v56.8818359h-10.7998047l-3.6005859-26.640625V1535.6171875z"/>
		</g>
	</g>
	<polygon style="display:inline;fill:#FFFFFF;" points="1797.0187988,1404.4084473 1779.6192627,1443.2609863 
		1824.6888428,1403.491333 	"/>
</g>
</svg>
