<?xml version="1.0" standalone="no"?>
<!DOCTYPE svg PUBLIC "-//W3C//DTD SVG 20010904//EN"
 "http://www.w3.org/TR/2001/REC-SVG-20010904/DTD/svg10.dtd">
<svg version="1.0" xmlns="http://www.w3.org/2000/svg"
 width="700.000000pt" height="700.000000pt" viewBox="0 0 700.000000 700.000000"
 preserveAspectRatio="xMidYMid meet">
<metadata>
Created by potrace 1.14, written by Peter Selinger 2001-2017
</metadata>
<g transform="translate(0.000000,700.000000) scale(0.100000,-0.100000)"
fill="#000000" stroke="none">
<path d="M2812 6623 c-49 -24 -64 -56 -65 -137 0 -53 7 -90 27 -146 57 -156
138 -237 348 -344 68 -34 146 -77 174 -94 28 -18 54 -32 58 -32 4 0 16 -9 28
-19 11 -11 48 -33 82 -50 235 -119 323 -237 263 -353 -12 -23 -31 -52 -42 -64
-28 -30 -131 -88 -223 -125 -42 -17 -99 -40 -126 -51 -27 -11 -56 -21 -65 -23
-9 -2 -81 -28 -159 -59 -79 -31 -149 -56 -155 -56 -7 0 -25 -7 -42 -16 -16 -8
-77 -35 -135 -59 -58 -24 -142 -62 -187 -84 -46 -23 -85 -41 -88 -41 -2 0 -34
-18 -70 -40 -36 -22 -68 -40 -70 -40 -3 0 -30 -26 -60 -57 -47 -49 -62 -73
-53 -85 1 -2 -5 -14 -12 -28 -30 -55 0 -137 68 -188 21 -15 42 -32 47 -39 20
-22 281 -143 311 -143 8 0 49 -15 92 -34 42 -19 127 -53 187 -75 121 -46 138
-53 240 -102 128 -62 178 -105 195 -170 13 -49 -2 -132 -30 -158 -47 -45 -90
-80 -145 -116 -62 -42 -86 -74 -78 -106 12 -44 74 -28 160 40 49 38 76 84 87
147 3 15 14 37 26 49 11 12 20 27 20 33 0 7 5 12 10 12 6 0 10 5 10 10 0 6 12
34 26 63 28 56 45 167 25 167 -6 0 -11 7 -11 16 0 18 -37 74 -49 74 -5 0 -24
15 -43 33 -49 46 -212 127 -348 173 -63 21 -117 42 -120 45 -3 3 -23 17 -45
31 -59 37 -103 81 -110 111 -17 67 47 165 159 241 57 39 307 166 327 166 6 0
25 6 42 14 18 8 48 19 67 25 139 39 377 153 459 219 65 53 131 124 143 152 18
48 16 114 -9 191 -43 139 -124 230 -263 295 -89 41 -180 102 -235 157 -56 56
-146 125 -166 128 -5 1 -12 2 -16 3 -33 8 -97 17 -145 21 -81 6 -128 22 -169
58 -70 62 -77 116 -32 217 48 107 40 195 -21 235 -35 23 -59 25 -94 8z"/>
<path d="M3864 4981 c-18 -11 -38 -28 -45 -39 -21 -28 -132 -79 -194 -87 -106
-14 -365 -124 -365 -155 0 -5 -15 -16 -33 -24 -42 -17 -76 -93 -58 -132 14
-31 116 -106 197 -144 35 -17 66 -35 70 -41 3 -6 16 -14 27 -20 23 -9 58 -30
67 -39 3 -3 12 -9 21 -15 182 -116 329 -253 329 -308 0 -8 6 -26 13 -41 25
-46 14 -154 -23 -230 -18 -37 -43 -74 -56 -83 -13 -8 -21 -19 -18 -24 3 -5 0
-9 -5 -9 -6 0 -11 -7 -11 -15 0 -8 -11 -22 -25 -31 -22 -14 -38 -43 -17 -30 5
3 21 7 36 10 38 7 208 166 221 208 4 9 14 19 23 22 19 6 23 12 68 105 23 47
30 75 28 110 -3 73 -13 109 -40 138 -13 14 -24 33 -24 42 -1 33 -245 183 -353
217 -12 4 -34 15 -49 26 -16 11 -28 16 -28 12 0 -4 -8 -1 -17 7 -10 8 -31 21
-47 29 -16 8 -47 32 -69 52 l-40 38 5 64 c4 40 12 73 24 88 33 44 159 122 222
137 20 5 64 19 97 30 33 11 78 25 100 31 52 12 72 28 81 63 5 22 3 26 -9 21
-10 -3 -18 2 -22 15 -8 26 -40 27 -81 2z"/>
<path d="M2666 3292 c-4 -4 -38 -8 -74 -8 -37 -1 -95 -4 -129 -8 -34 -4 -106
-9 -160 -11 -54 -2 -129 -9 -168 -14 -38 -6 -88 -13 -110 -16 -92 -13 -201
-38 -213 -48 -8 -6 -24 -31 -37 -56 -32 -64 -50 -76 -134 -95 -96 -22 -128
-36 -172 -77 -71 -66 -82 -123 -44 -235 16 -46 29 -110 32 -153 5 -87 23 -127
88 -191 34 -33 45 -52 43 -70 -3 -23 -9 -26 -98 -41 -189 -32 -257 -87 -244
-197 9 -83 23 -116 68 -168 53 -60 148 -111 222 -118 27 -3 61 -9 74 -14 14
-5 48 -10 75 -11 28 -1 60 -9 73 -17 24 -16 30 -49 10 -57 -7 -2 -41 -26 -76
-52 -58 -43 -79 -71 -87 -115 -5 -27 25 -84 67 -127 48 -49 110 -73 201 -78
58 -4 136 -12 182 -20 30 -6 93 -13 160 -20 33 -3 110 -13 172 -21 61 -8 142
-17 180 -20 37 -3 79 -7 93 -9 33 -6 171 -23 235 -29 28 -3 80 -12 116 -20 36
-9 75 -17 87 -19 35 -5 48 -23 26 -35 -32 -16 -135 -35 -209 -37 -38 -1 -83
-5 -100 -8 -39 -8 -108 -14 -280 -22 -77 -4 -149 -9 -160 -11 -10 -2 -103 -6
-205 -9 -373 -11 -457 -15 -505 -25 -28 -6 -64 -13 -82 -16 -18 -4 -40 -15
-49 -25 -16 -17 -16 -22 0 -61 30 -79 164 -151 358 -193 67 -15 146 -33 173
-41 28 -8 82 -19 120 -24 39 -5 117 -17 175 -25 58 -9 120 -17 139 -19 41 -2
61 -27 42 -50 -14 -17 -105 -46 -144 -46 -14 0 -70 10 -124 23 -113 26 -180
27 -311 1 -20 -4 -52 -35 -52 -51 0 -8 8 -22 18 -32 75 -80 417 -75 607 9 72
32 95 36 210 33 164 -3 272 -13 390 -33 129 -23 324 -29 510 -16 44 3 118 8
165 11 47 3 123 7 170 9 47 2 148 7 225 11 77 4 190 8 250 9 118 2 222 25 249
55 34 38 19 134 -27 179 -56 54 -143 83 -297 99 -55 6 -814 9 -875 3 -11 -1
-94 1 -185 4 -91 4 -207 8 -257 9 -51 2 -96 6 -99 10 -4 3 -15 2 -26 -4 -10
-5 -24 -6 -31 -2 -12 8 -26 10 -182 18 -164 8 -209 13 -292 28 -112 22 -150
44 -105 62 20 9 30 10 142 19 186 14 218 17 241 21 38 8 90 14 164 20 39 3 95
10 125 15 66 11 145 19 260 24 47 3 144 8 215 12 169 9 252 10 296 3 19 -3 46
-2 59 3 13 5 27 4 34 -2 7 -5 26 -9 42 -8 16 0 94 -3 174 -7 145 -8 436 -9
541 -2 62 4 142 39 163 71 13 20 13 53 1 124 -8 43 -67 108 -113 123 -37 12
-794 20 -813 8 -5 -3 -35 -2 -67 3 -31 5 -85 10 -120 13 -35 2 -75 6 -90 9
-15 3 -81 8 -147 11 -66 3 -140 8 -165 11 -25 3 -57 6 -72 8 -31 3 -58 22 -58
41 0 36 63 54 215 62 172 9 854 5 1015 -6 80 -6 199 -10 265 -10 66 -1 144 -5
172 -11 48 -9 204 -13 263 -6 35 3 51 15 86 61 43 57 72 133 69 180 -3 59 -49
127 -103 156 -43 22 -57 24 -217 26 -93 1 -176 2 -182 2 -7 1 -19 14 -27 30
-12 23 -13 31 -3 39 25 20 77 42 113 48 52 8 75 18 110 47 44 36 64 44 124 50
117 12 238 81 258 150 10 32 10 76 -3 157 -21 145 -124 232 -326 280 l-57 13
2 81 c1 104 -11 128 -89 170 -118 63 -288 127 -322 121 -10 -1 -34 4 -53 12
-30 13 -99 27 -235 49 -16 3 -55 9 -85 14 -120 21 -135 23 -268 34 -34 3 -66
7 -70 9 -4 3 -38 8 -77 11 -38 4 -88 9 -110 11 -22 3 -80 7 -130 11 -49 3
-115 8 -145 10 -83 7 -222 15 -245 14 -11 -1 -24 -1 -30 -1 -5 0 -89 2 -187 5
-97 2 -180 6 -186 10 -5 3 -12 2 -16 -2z"/>
<path d="M5637 2725 c-138 -47 -178 -79 -198 -158 -36 -147 45 -369 114 -309
10 9 36 43 59 76 86 128 142 167 242 169 109 1 193 -52 224 -142 18 -51 8
-213 -18 -306 -12 -44 -41 -114 -64 -155 -23 -41 -48 -87 -56 -102 -15 -31
-55 -69 -153 -147 -66 -52 -88 -79 -94 -113 -7 -42 -46 -129 -64 -141 -13 -10
-41 -13 -92 -10 -64 4 -78 2 -122 -22 -83 -45 -144 -95 -202 -164 -71 -87
-104 -156 -106 -221 -2 -46 2 -55 30 -80 27 -24 37 -27 79 -24 75 7 152 50
202 114 24 30 65 78 92 107 26 28 70 87 98 130 29 43 63 87 78 98 25 19 114
127 114 139 0 25 87 130 181 216 243 223 266 253 312 389 27 78 28 142 7 277
-33 211 -126 344 -272 388 -26 8 -99 13 -183 14 -122 0 -149 -3 -208 -23z"/>
<path d="M737 1502 c-21 -23 -22 -54 -3 -91 30 -56 93 -76 122 -37 10 15 10
26 -1 64 -23 75 -81 106 -118 64z"/>
<path d="M698 1229 c-9 -5 -15 -15 -14 -22 10 -46 37 -65 60 -42 28 29 -12 83
-46 64z"/>
<path d="M1167 1152 c-32 -35 -26 -91 14 -132 60 -60 129 -20 113 65 -13 71
-88 111 -127 67z"/>
<path d="M5941 571 c-24 -24 -26 -42 -9 -59 14 -14 43 0 57 27 8 14 6 23 -9
36 -17 16 -19 16 -39 -4z"/>
<path d="M5435 560 c-29 -12 -61 -50 -74 -89 -16 -48 -14 -59 13 -86 20 -20
29 -23 55 -15 40 11 77 39 91 69 15 33 2 88 -27 111 -28 22 -29 22 -58 10z"/>
</g>
</svg>
